<?xml version="1.0" standalone="no"?>
<!DOCTYPE svg PUBLIC "-//W3C//DTD SVG 1.1//EN" "http://www.w3.org/Graphics/SVG/1.1/DTD/svg11.dtd" >
<svg xmlns="http://www.w3.org/2000/svg">
<metadata></metadata>
<defs>
<font id="sky_textitalic" horiz-adv-x="1206" >
<font-face units-per-em="2048" ascent="1638" descent="-410" />
<missing-glyph horiz-adv-x="399" />
<glyph horiz-adv-x="0" />
<glyph unicode="&#xd;" horiz-adv-x="399" />
<glyph unicode=" "  horiz-adv-x="399" />
<glyph unicode="&#x09;" horiz-adv-x="399" />
<glyph unicode="&#xa0;" horiz-adv-x="399" />
<glyph unicode="!" horiz-adv-x="509" d="M172 78q0 41 27.5 72.5t70.5 31.5q39 0 62.5 -27.5t23.5 -66.5q0 -41 -27.5 -71.5t-70.5 -30.5q-39 0 -62.5 26.5t-23.5 65.5zM285 434l114 828q10 74 90 73q27 0 47.5 -6t32.5 -12l-186 -852q-10 -41 -55 -41q-16 0 -43 10z" />
<glyph unicode="&#x22;" horiz-adv-x="671" d="M287 831l53 439q10 66 74 65q25 0 47 -10t31 -14l-115 -459q-6 -31 -43 -31q-16 0 -28.5 3t-18.5 7zM580 831l53 439q10 66 74 65q25 0 47 -10t30 -14l-114 -459q-6 -31 -43 -31q-16 0 -28.5 3t-18.5 7z" />
<glyph unicode="#" d="M162 420q0 33 13 45t34 12h180l88 369h-209q-4 20 -4 49q0 35 14.5 47t30.5 12h191l82 349q12 37 59 36q16 0 30.5 -5t26.5 -9l-86 -371h306l81 349q12 37 60 36q16 0 30.5 -5t26.5 -9l-86 -371h207q4 -20 4 -51q0 -35 -13.5 -46t-31.5 -11h-188l-90 -369h221 q2 -10 3 -23.5t1 -29.5q0 -31 -14.5 -43t-30.5 -12h-205l-84 -344q-4 -20 -19.5 -26.5t-35.5 -6.5q-33 0 -58 10l86 367h-307l-80 -344q-6 -20 -21.5 -26.5t-35.5 -6.5q-35 0 -62 10l89 367h-197q-4 8 -5 21t-1 30zM500 477h307l88 369h-305z" />
<glyph unicode="$" d="M150 74q-4 57 20.5 81.5t52.5 24.5q27 0 53.5 -10t61.5 -22.5t83 -24.5t116 -17l96 527l-33 12q-279 109 -278 328q0 68 30.5 133t87 117.5t139.5 86t187 40.5l27 143q6 47 53 47q23 0 38 -5t25 -9l-32 -178q84 -8 164.5 -31t144.5 -53q0 -104 -72 -105q-18 0 -40.5 8.5 t-53.5 18.5t-72 21.5t-96 15.5l-90 -490l39 -14q131 -47 206.5 -133t75.5 -213q0 -78 -33.5 -146.5t-94 -122t-145.5 -86t-189 -38.5l-25 -140q-10 -47 -64 -47q-16 0 -30.5 3t-20.5 7l33 177q-100 8 -193.5 32.5t-170.5 61.5zM459 979q0 -70 45 -119t155 -90l82 451 q-135 -12 -208.5 -81t-73.5 -161zM645 109q135 14 215 83.5t80 180.5q0 72 -46 125t-144 92l-15 4z" />
<glyph unicode="%" horiz-adv-x="1396" d="M201 881q0 82 21.5 162.5t63.5 145t101 105.5t135 41q94 0 157.5 -65.5t63.5 -194.5q0 -80 -21.5 -160.5t-62.5 -146.5t-100 -106.5t-135 -40.5q-92 0 -157.5 66.5t-65.5 193.5zM299 23l858 1271q10 16 27.5 29.5t46.5 13.5q25 2 44 -7t25 -13l-856 -1272 q-31 -43 -77 -43q-18 -2 -38 5t-30 16zM311 881q0 -82 32 -121t91 -39q51 0 89 33.5t61.5 86t35 115t11.5 121.5q0 84 -31 121t-86 37t-93 -37t-62.5 -90t-36 -115.5t-11.5 -111.5zM858 264q0 82 21.5 163t62.5 145.5t100.5 105.5t137.5 41q94 0 156.5 -65.5t62.5 -194.5 q0 -84 -20.5 -165t-61.5 -145.5t-100.5 -104.5t-135.5 -40q-92 0 -157.5 66.5t-65.5 193.5zM969 264q0 -82 32 -121t91 -39q51 0 89 34t61.5 86t34.5 114.5t11 122.5q0 84 -30.5 120.5t-86.5 36.5q-55 0 -93 -36.5t-62.5 -90t-35.5 -116t-11 -111.5z" />
<glyph unicode="&#x26;" horiz-adv-x="1277" d="M129 315q0 82 26.5 153t73.5 127t113 99t143 74q-27 53 -43 104.5t-16 108.5q0 74 28.5 141.5t81 118.5t128 82t170.5 31q82 0 167.5 -24.5t139.5 -59.5q-6 -55 -25.5 -72.5t-40.5 -17.5q-25 0 -46 9t-49 19.5t-63.5 19.5t-87.5 9q-66 0 -115.5 -20.5t-84.5 -55.5 t-52.5 -79t-17.5 -89q0 -47 10.5 -91t35 -92t64.5 -104.5t99 -130.5q49 -61 93 -114t87 -101q57 80 107.5 176.5t97.5 200.5q20 45 42 64.5t50 19.5q25 0 40.5 -8t25.5 -16q-66 -156 -137.5 -286t-149.5 -235q63 -68 124.5 -127t129.5 -120q-33 -33 -88 -33q-57 0 -103 43 q-59 53 -145 145q-96 -98 -203.5 -152.5t-230.5 -54.5q-96 0 -168 28t-119 75t-69.5 108.5t-22.5 126.5zM264 342q0 -47 15.5 -92t47 -79t78 -54.5t107.5 -20.5q111 0 198 46t160 124q-47 53 -94 109.5t-90 110t-80 102.5t-63 90q-127 -47 -203 -127t-76 -209z" />
<glyph unicode="'" horiz-adv-x="378" d="M287 831l53 439q10 66 74 65q25 0 47 -10t31 -14l-115 -459q-6 -31 -43 -31q-20 0 -29.5 4t-17.5 6z" />
<glyph unicode="(" horiz-adv-x="688" d="M139 293q0 172 51.5 331.5t140.5 297t210 247t260 183.5q45 -33 45 -72q0 -16 -9.5 -32.5t-37.5 -33.5q-111 -68 -206 -170t-165 -224t-109.5 -256t-39.5 -265q0 -203 68.5 -342t184.5 -236q25 -18 25 -51q0 -20 -13 -40t-44 -36q-172 125 -266.5 300.5t-94.5 398.5z" />
<glyph unicode=")" horiz-adv-x="688" d="M-2 -334q0 16 9 31.5t38 34.5q111 68 206 170t164.5 223t109.5 255t40 267q0 203 -68.5 342t-185.5 236q-27 20 -26 51q0 45 59 76q172 -125 266.5 -300t94.5 -399q0 -172 -51.5 -331.5t-140.5 -297t-210 -247t-260 -183.5q-45 33 -45 72z" />
<glyph unicode="*" horiz-adv-x="636" d="M199 1083q0 31 15 54.5t46 23.5q12 0 31 -6l182 -63l33 268q16 8 43 8q23 0 41 -11t18 -38q0 -12 -2 -21l-59 -211l256 70q20 -25 20 -57q0 -20 -12 -35.5t-41 -20.5l-217 -24l131 -234q-27 -45 -68 -45q-16 0 -30.5 11.5t-24.5 33.5l-74 185l-184 -234q-31 2 -50.5 18.5 t-19.5 39.5q0 25 21 45l184 182l-237 43q-2 6 -2 18z" />
<glyph unicode="+" d="M184 535q0 37 15.5 51t42.5 14h376v399q0 23 15.5 37.5t52.5 14.5q18 0 33.5 -2t25.5 -7v-442h441q2 -10 4 -26.5t2 -34.5q0 -37 -15.5 -51.5t-41.5 -14.5h-390v-426q0 -23 -15 -37t-52 -14q-18 0 -33.5 2t-26.5 6v469h-428q-2 10 -4 26.5t-2 35.5z" />
<glyph unicode="," horiz-adv-x="309" d="M-29 -229l168 340q16 33 32.5 43t35.5 10q25 0 40 -18.5t15 -45.5q0 -33 -18.5 -75.5t-50.5 -90.5q-25 -37 -51.5 -69.5t-53.5 -56t-56.5 -35t-60.5 -2.5z" />
<glyph unicode="-" horiz-adv-x="677" d="M141 457v27.5t4 33.5q6 35 24.5 50.5t41.5 15.5h498q2 -10 0 -26.5t-7 -33.5q-8 -39 -23 -53t-38 -14h-500z" />
<glyph unicode="." horiz-adv-x="348" d="M94 78q0 41 28 72.5t71 31.5q39 0 62.5 -27.5t23.5 -66.5q0 -41 -28 -71.5t-71 -30.5q-39 0 -62.5 26.5t-23.5 65.5z" />
<glyph unicode="/" horiz-adv-x="606" d="M35 -66l622 1373q16 37 40 47t44 10q23 0 38.5 -7t25.5 -16l-629 -1386q-12 -25 -31.5 -32t-40.5 -7q-18 0 -38.5 6t-30.5 12z" />
<glyph unicode="0" horiz-adv-x="1255" d="M213 451q0 184 46 348t128 286.5t195.5 195.5t251.5 73q84 0 155.5 -32t124.5 -93.5t84 -151.5t31 -209q0 -184 -47 -346t-130 -282.5t-197 -191.5t-245 -71q-88 0 -160.5 33t-125 94.5t-82 148.5t-29.5 198zM354 453q0 -184 74 -268.5t195 -84.5q100 0 185 64.5 t147.5 170t97 242t34.5 279.5q0 197 -75.5 286t-190.5 89q-104 0 -190 -67.5t-147.5 -177t-95.5 -249t-34 -284.5z" />
<glyph unicode="1" horiz-adv-x="698" d="M242 1092q0 29 12 47t43 35l313 157h107l-238 -1288q-4 -25 -22.5 -40t-55.5 -15q-23 0 -39 5t-26 11l213 1145l-266 -133q-14 10 -27.5 29.5t-13.5 46.5z" />
<glyph unicode="2" horiz-adv-x="1032" d="M66 59q0 37 23.5 70t60.5 61l155 119q147 111 259 202t188.5 171t115.5 151.5t39 145.5q0 104 -66.5 175t-187.5 71q-78 0 -133 -20.5t-95 -44t-69.5 -44t-54.5 -20.5q-35 0 -52.5 25.5t-17.5 68.5q84 70 192.5 117t229.5 47q190 0 296 -96.5t106 -278.5 q0 -96 -49.5 -188.5t-133.5 -181.5t-195.5 -176t-236.5 -175l-198 -139l2 -4q41 0 100 2t123.5 5t131.5 5t124 3t99 2t59 1q27 -2 48 -19.5t21 -52.5q0 -16 -6 -34.5t-10 -26.5h-858q-10 18 -10 59z" />
<glyph unicode="3" horiz-adv-x="1069" d="M104 100q-6 47 12.5 74t53.5 27q25 0 53.5 -15.5t67.5 -34t93 -34t134 -15.5q92 0 161 25t115 64.5t69.5 92t23.5 109.5q2 102 -76 165t-229 63h-140q-23 0 -39 14t-16 43q0 37 14 65h170q98 0 172 22.5t122 59.5t73 86.5t25 104.5q0 86 -64.5 146.5t-191.5 60.5 q-74 0 -123 -13.5t-85 -29t-60.5 -27.5t-47.5 -12q-29 0 -52.5 24.5t-16.5 71.5q72 47 175 81t220 34q186 0 287.5 -88t101.5 -230q0 -59 -21.5 -114.5t-59.5 -102.5t-91.5 -83t-116.5 -52q39 -12 78 -36.5t69.5 -61.5t49 -85t18.5 -106q0 -94 -42 -171t-112.5 -131 t-162.5 -84t-191 -30q-74 0 -137 11.5t-115.5 30t-94.5 40t-73 41.5z" />
<glyph unicode="4" horiz-adv-x="1110" d="M145 354q0 23 10.5 50.5t39.5 62.5l714 864h156l-168 -911q53 2 90 2h51q27 -2 48.5 -19.5t21.5 -52.5q0 -16 -6 -32.5t-10 -24.5h-220l-43 -240q-11 -61 -79 -61q-16 0 -37 5t-31 13l57 283h-575q-6 6 -12.5 25.5t-6.5 35.5zM319 408q35 0 86.5 2t110.5 3t122.5 3 t125.5 2l151 741l-4 4z" />
<glyph unicode="5" horiz-adv-x="1046" d="M100 84q0 53 22.5 78.5t51.5 25.5q20 0 45 -13t61.5 -29.5t89 -30t124.5 -13.5q92 0 165.5 30t124 78t77 111.5t26.5 131.5q0 119 -80 182t-203 63q-63 0 -140 -25.5t-149 -78.5l-92 41l209 696h680q4 -10 6 -25.5t2 -25.5q0 -47 -25.5 -63.5t-66.5 -16.5q-139 0 -256 4 t-248 4l-137 -448h2q66 35 127.5 48t120.5 13q86 0 158.5 -25.5t126 -73.5t83 -115.5t29.5 -151.5q0 -88 -38 -174t-108.5 -154t-170 -109t-223.5 -41q-127 0 -224.5 32t-169.5 75z" />
<glyph unicode="6" horiz-adv-x="1138" d="M203 467q0 188 53 350t144.5 282t215 187.5t265.5 67.5q92 0 157.5 -16.5t124.5 -47.5q4 -55 -21.5 -77.5t-47.5 -22.5q-23 0 -40.5 6t-40 13.5t-56 13.5t-87.5 6q-88 0 -167.5 -36t-146.5 -104.5t-116 -168t-73 -226.5q27 31 64.5 61.5t84.5 55.5t101.5 41t113.5 16 q92 0 167 -31.5t127 -86t80 -126t28 -149.5q0 -104 -41 -195.5t-110 -159t-162 -105.5t-197 -38q-80 0 -156 30t-134.5 90.5t-94 152.5t-35.5 217zM339 391q9 -80 45 -144.5t97.5 -105.5t151.5 -41q74 0 139.5 29t114.5 78t77.5 116.5t28.5 145.5q0 63 -23.5 114.5 t-63.5 87.5t-93 54t-115 18q-68 0 -124 -20.5t-100 -50t-77 -63t-51 -60.5q-16 -78 -7 -158z" />
<glyph unicode="7" horiz-adv-x="907" d="M145 57q0 20 15 49q6 12 58 88t128 187t164 240t169 247.5t143.5 210.5t84.5 127l-2 4q-41 -2 -98 -3t-119.5 -2t-126 -2t-117 -2t-90.5 -2t-49 -1q-43 0 -66.5 21.5t-23.5 56.5q0 14 4 29.5t8 25.5h817q10 -25 11 -53q0 -35 -15.5 -71t-48.5 -85l-749 -1136 q-31 0 -64 17t-33 54z" />
<glyph unicode="8" horiz-adv-x="1138" d="M137 315q0 72 28 135.5t74 113.5t107.5 85t128.5 51q-66 27 -119 91.5t-53 160.5q0 86 36 160t100.5 127t155.5 84t202 31q94 0 164.5 -23.5t116.5 -64.5t69.5 -96.5t23.5 -116.5q0 -68 -25.5 -127.5t-66.5 -105.5t-92 -80t-102 -48q96 -27 153.5 -98.5t57.5 -185.5 q0 -94 -40 -174t-109.5 -137.5t-165 -89.5t-208.5 -32q-217 0 -326.5 93.5t-109.5 246.5zM285 317q0 -45 16 -84.5t52 -69.5t92.5 -47.5t136.5 -17.5q74 0 141.5 22.5t118.5 62.5t81.5 96.5t30.5 126.5q0 39 -15 78.5t-50 71.5t-92.5 51.5t-143.5 19.5q-88 0 -156.5 -24.5 t-115.5 -65.5t-71.5 -98.5t-24.5 -121.5zM442 950q0 -84 61.5 -142t186.5 -58q63 0 123.5 20.5t109 59t78 92.5t29.5 122q0 74 -60.5 130.5t-195.5 56.5q-68 0 -127 -18.5t-105 -54.5t-73 -88t-27 -120z" />
<glyph unicode="9" horiz-adv-x="1128" d="M217 61q0 29 21 48q18 14 53 14q33 0 77 5t101 17q39 8 106.5 31t142.5 77t144.5 146.5t110.5 239.5l-4 2q-55 -72 -145.5 -126t-221.5 -54q-86 0 -154.5 29.5t-117.5 82t-76 122t-27 147.5q0 106 42 200.5t112 163t159 108.5t181 40q98 0 174 -41t126 -109.5t76.5 -159 t26.5 -188.5q0 -197 -65.5 -358.5t-183 -275t-281.5 -175t-358 -55.5q-18 29 -19 69zM369 868q0 -141 72.5 -213.5t195.5 -72.5q61 0 115.5 22.5t98.5 58t77.5 81t56.5 92.5q6 63 -4 132.5t-42 128t-87 96.5t-141 38q-63 0 -125 -27.5t-110 -76t-77.5 -115t-29.5 -144.5z " />
<glyph unicode=":" horiz-adv-x="473" d="M145 78q0 41 28 72.5t71 31.5q39 0 62.5 -27.5t23.5 -66.5q0 -41 -28 -71.5t-71 -30.5q-39 0 -62.5 26.5t-23.5 65.5zM278 803q0 41 28 72.5t71 31.5q39 0 62.5 -27.5t23.5 -66.5q0 -41 -28 -71.5t-71 -30.5q-39 0 -62.5 26.5t-23.5 65.5z" />
<glyph unicode=";" horiz-adv-x="473" d="M84 -229l168 340q16 33 32.5 43t35.5 10q25 0 40 -18.5t15 -45.5q0 -33 -18.5 -75.5t-50.5 -90.5q-25 -37 -51.5 -69.5t-53.5 -56t-56.5 -35t-60.5 -2.5zM340 803q0 41 28 72.5t71 31.5q39 0 62.5 -27.5t23.5 -66.5q0 -41 -28 -71.5t-71 -30.5q-39 0 -62.5 26.5 t-23.5 65.5z" />
<glyph unicode="&#x3c;" d="M250 475l20 121l830 451q6 -12 11 -34t5 -46q0 -29 -13 -47.5t-34 -28.5l-674 -365l525 -366q37 -29 36 -74q0 -29 -10 -51.5t-24 -36.5z" />
<glyph unicode="=" d="M223 322q0 37 15.5 51t42.5 14h833q2 -10 4 -26.5t2 -34.5q0 -37 -15 -51.5t-42 -14.5h-834q-2 10 -4 26.5t-2 35.5zM223 727q0 37 15.5 51.5t42.5 14.5h833q2 -10 4 -26.5t2 -35.5q0 -37 -15 -51t-42 -14h-834q-2 10 -4 26.5t-2 34.5z" />
<glyph unicode="&#x3e;" d="M250 78q0 29 13 47t34 29l674 364l-525 367q-37 29 -36 73q0 29 10 51.5t24 37.5l672 -478l-20 -120l-830 -451q-6 12 -11 33.5t-5 46.5z" />
<glyph unicode="?" horiz-adv-x="886" d="M256 1219v13t2 15q66 39 170 73t221 34q80 0 144.5 -21.5t108.5 -60.5t67.5 -93.5t23.5 -117.5q0 -61 -20.5 -112.5t-53 -93.5t-73.5 -74.5t-84 -59.5q-68 -41 -114 -69.5t-77.5 -56.5t-52 -58.5t-33.5 -73.5q-4 -18 -18 -30.5t-39 -12.5q-26 0 -55 10q10 94 50 156.5 t94 108.5t113.5 81t111 74t84 88t32.5 123q0 78 -55 123t-162 45q-68 0 -118 -12.5t-88 -27.5t-66.5 -27.5t-51.5 -12.5q-25 0 -43 18.5t-18 51.5zM272 78q0 41 28 72.5t71 31.5q39 0 62.5 -27.5t23.5 -66.5q0 -41 -28 -71.5t-71 -30.5q-39 0 -62.5 26.5t-23.5 65.5z" />
<glyph unicode="@" horiz-adv-x="1380" d="M137 567q0 143 52.5 266t142.5 214.5t214 142.5t269 51q150 0 264.5 -51t192.5 -134t118 -188.5t40 -214.5q0 -94 -25 -167.5t-66 -126t-94 -80t-110 -27.5q-70 0 -111 32.5t-53 80.5q-31 -47 -79 -83t-142 -36q-55 0 -104.5 20.5t-88.5 60.5t-61.5 96t-22.5 130 q0 68 22.5 124t61.5 96t89 62.5t106 22.5q68 0 118 -28.5t82 -75.5q2 43 12.5 68.5t51.5 25.5q10 0 21.5 -2t19.5 -4v-396q0 -59 25.5 -79.5t56.5 -20.5q35 0 68.5 18.5t61 56.5t44 96t16.5 136q0 98 -36 187.5t-103.5 156t-162.5 105.5t-214 39q-109 0 -210 -39t-180 -113 t-126 -180.5t-47 -241.5q0 -139 44 -247.5t118.5 -183.5t173 -113.5t207.5 -38.5q72 0 126 11t95 23.5t68.5 23.5t43.5 11q23 0 40.5 -16.5t13.5 -73.5q-84 -35 -182.5 -59.5t-202.5 -24.5q-145 0 -265 52.5t-208.5 144.5t-136.5 218t-48 273zM588 551q0 -86 47 -145.5 t139 -59.5q55 0 102.5 31t73.5 78v190q-18 43 -65 79t-111 36q-47 0 -82 -17.5t-57.5 -46t-34.5 -66.5t-12 -79z" />
<glyph unicode="A" horiz-adv-x="1153" d="M2 14l688 1299q16 12 44 19t52 7q59 0 86 -21.5t33 -62.5l195 -1245q-14 -10 -32.5 -15t-35.5 -5q-29 0 -53.5 13t-30.5 58l-47 353h-530l-195 -375q-16 -29 -41.5 -39t-48.5 -10q-25 0 -49.5 7t-34.5 17zM434 541h449l-99 673z" />
<glyph unicode="B" horiz-adv-x="1146" d="M160 57l223 1217q4 25 18.5 41t53.5 16h315q211 0 308.5 -73.5t97.5 -208.5q0 -61 -21.5 -120t-59.5 -108t-91.5 -85t-116.5 -52q117 -27 168 -98.5t51 -157.5q0 -78 -31 -154.5t-94 -137t-158.5 -98.5t-226.5 -38h-387q-37 0 -45 16q-5 11 -5 26q0 7 1 15zM305 125h279 q186 0 282.5 78t96.5 213q0 27 -7.5 62.5t-37 66t-90 52t-166.5 21.5h-265zM420 739h264q82 0 145.5 22.5t108.5 62.5t68.5 94.5t23.5 117.5q0 37 -12 68t-42 53.5t-77 35.5t-117 13h-276z" />
<glyph unicode="C" horiz-adv-x="1110" d="M152 539q0 160 60 305t161.5 254.5t234.5 174t281 64.5q100 0 188 -27.5t154 -64.5q0 -68 -23.5 -89t-52.5 -21q-20 0 -42.5 11t-55.5 23.5t-78 23.5t-111 11q-113 0 -215 -51t-181 -140t-126 -209t-47 -259q0 -199 98.5 -319t284.5 -120q63 0 112.5 10.5t85 23 t61.5 22.5t42 10q27 0 49 -26q13 -15 12 -44q0 -20 -6 -47q-84 -35 -175 -57.5t-189 -22.5q-131 0 -228.5 44t-163 120t-98 178.5t-32.5 221.5z" />
<glyph unicode="D" horiz-adv-x="1284" d="M156 57l223 1217q4 25 18.5 41t53.5 16h290q133 0 237.5 -35.5t175.5 -103.5t107.5 -163t36.5 -214q0 -164 -56 -312.5t-161.5 -260t-256 -177t-339.5 -65.5h-280q-37 0 -45 16q-5 11 -5 26q0 7 1 15zM305 125h162q154 0 280.5 47t218 136t140.5 217t49 290 q0 96 -30.5 169t-86 122t-132.5 74.5t-169 25.5h-229z" />
<glyph unicode="E" horiz-adv-x="993" d="M156 57l223 1217q4 25 18.5 41t53.5 16h655q4 -16 4 -39q0 -41 -16.5 -63.5t-53.5 -22.5h-534l-88 -479h524q4 -16 4 -39q0 -41 -16.5 -63.5t-52.5 -22.5h-482l-90 -477h592q4 -16 4 -39q0 -41 -16.5 -63.5t-53.5 -22.5h-626q-37 0 -45 16q-5 11 -5 26q0 7 1 15z" />
<glyph unicode="F" horiz-adv-x="993" d="M154 4l233 1270q4 25 18.5 41t53.5 16h686q4 -16 4 -39q0 -41 -16.5 -63.5t-53.5 -22.5h-565l-90 -485h559q4 -16 4 -39q0 -41 -16.5 -63.5t-52.5 -22.5h-517l-102 -551q-12 -57 -78 -57q-16 0 -34.5 5t-32.5 11z" />
<glyph unicode="G" horiz-adv-x="1271" d="M154 549q0 162 58 307t159.5 255t239 174.5t294.5 64.5q109 0 211.5 -22.5t198.5 -82.5q0 -47 -16.5 -75.5t-55.5 -28.5q-23 0 -50.5 12t-68.5 27.5t-99 29t-142 13.5q-121 0 -228.5 -56.5t-187.5 -150.5t-127 -217t-47 -256q0 -96 27.5 -176t80 -139.5t128 -92.5 t169.5 -33q98 0 176 20.5t148 59.5l72 406h-306q-27 0 -38 16.5t-11 36.5q0 23 6.5 41t14.5 31h411q68 0 68 -60q0 -14 -2 -20l-98 -529q-104 -63 -209 -95t-234 -32q-127 0 -228 42t-171 118t-106.5 180.5t-36.5 231.5z" />
<glyph unicode="H" horiz-adv-x="1298" d="M154 4l235 1272q12 59 76 59q16 0 34.5 -5t32.5 -11l-106 -588h674l100 545q10 59 76 59q16 0 34.5 -5t32.5 -11l-231 -1274q-12 -57 -78 -57q-16 0 -34.5 5t-32.5 11l110 602h-674l-104 -561q-12 -57 -78 -57q-16 0 -34.5 5t-32.5 11z" />
<glyph unicode="I" horiz-adv-x="487" d="M154 4l235 1272q12 59 76 59q16 0 34.5 -5t32.5 -11l-233 -1274q-12 -57 -78 -57q-16 0 -34.5 5t-32.5 11z" />
<glyph unicode="J" horiz-adv-x="870" d="M35 80q0 51 20.5 76.5t48.5 25.5q23 0 43.5 -10t48 -23.5t65.5 -23.5t97 -10q86 0 155 57t91 180l170 924q12 59 76 59q16 0 34.5 -5t33.5 -11l-181 -981q-31 -172 -132 -262t-255 -90q-98 0 -177 26.5t-138 67.5z" />
<glyph unicode="K" horiz-adv-x="1042" d="M154 4l237 1272q12 59 76 59q16 0 34.5 -5t33.5 -11l-113 -610l647 591q16 14 35.5 24.5t48.5 10.5q33 0 56.5 -12t37.5 -27l-690 -626q111 -162 227.5 -326t239.5 -330q-38 -24 -88 -24h-4q-33 0 -53.5 15.5t-32.5 31.5q-115 156 -223.5 309.5t-212.5 308.5l-111 -610 q-8 -57 -78 -57q-16 0 -34.5 5t-32.5 11z" />
<glyph unicode="L" horiz-adv-x="954" d="M156 57l225 1219q12 59 76 59q16 0 34.5 -5t32.5 -11l-219 -1194h627q4 -16 4 -39q0 -41 -16.5 -63.5t-53.5 -22.5h-661q-29 0 -41 16q-9 12 -9 29q0 6 1 12z" />
<glyph unicode="M" horiz-adv-x="1515" d="M86 8l375 1311q20 8 44.5 12t47.5 4q59 0 87 -21.5t34 -74.5l47 -422q14 -123 27.5 -259t29.5 -298l484 995q23 45 53.5 62.5t77.5 17.5q33 0 59.5 -6t42.5 -12l-113 -1311q-10 -6 -25.5 -11t-37.5 -5q-29 0 -48.5 16.5t-15.5 46.5l107 1139l-514 -1034q-29 -61 -100 -62 q-39 0 -68 15l-129 1085l-320 -1151q-10 -33 -28.5 -44t-46.5 -11q-20 0 -40 6t-30 12z" />
<glyph unicode="N" horiz-adv-x="1325" d="M154 6l245 1315q39 14 80 14t68.5 -16t44.5 -57l438 -1059l199 1075q10 57 76 57q16 0 33.5 -5t31.5 -11l-240 -1305q-18 -10 -40.5 -15t-36.5 -5q-47 0 -68.5 19.5t-34.5 47.5l-452 1078l-199 -1096q-4 -29 -25.5 -41t-54.5 -12q-16 0 -33.5 5t-31.5 11z" />
<glyph unicode="O" horiz-adv-x="1374" d="M158 543q0 160 58 307t158.5 259t232 178.5t278.5 66.5q113 0 206 -44t157.5 -119t100 -177.5t35.5 -218.5q0 -168 -59 -316.5t-158.5 -260.5t-229.5 -176.5t-269 -64.5q-119 0 -213.5 44.5t-161 121t-101 179t-34.5 221.5zM305 545q0 -98 24.5 -180t72 -140.5t116 -90.5 t154.5 -32q109 0 210 54.5t180 148.5t126 218t47 263q0 98 -24.5 180.5t-71.5 140.5t-116 90t-155 32q-109 0 -211 -54.5t-180 -148.5t-125 -218t-47 -263z" />
<glyph unicode="P" horiz-adv-x="1073" d="M154 4l233 1270q6 25 19.5 41t52.5 16h284q207 0 309.5 -101.5t102.5 -260.5q0 -113 -43 -205t-121 -158.5t-186.5 -102.5t-239.5 -36h-188l-78 -422q-12 -57 -78 -57q-16 0 -34.5 5t-32.5 11zM401 592h183q209 0 320.5 101.5t111.5 275.5q0 111 -74 174t-205 63h-223z " />
<glyph unicode="Q" horiz-adv-x="1376" d="M158 532q0 160 59 309.5t160.5 263.5t232.5 183q127 66 269 66h8q113 0 206 -43t157.5 -117t100 -175t35.5 -218q0 -141 -44 -273.5t-121.5 -240t-183 -184t-228.5 -107.5l405 -172q-4 -47 -35.5 -67.5t-60.5 -20.5q-43 0 -106 28l-537 246q-145 66 -231 201t-86 321z M307 535q0 -98 26.5 -178.5t75 -138.5t117 -90t152.5 -32q115 0 217 59.5t179 158t121 224.5t44 259q0 94 -25.5 173t-72.5 136t-112.5 90t-147.5 33q-121 0 -225.5 -57.5t-182.5 -152.5t-122 -221t-44 -263z" />
<glyph unicode="R" horiz-adv-x="1089" d="M154 4l233 1270q4 25 18.5 41t53.5 16h297q94 0 166.5 -25.5t121 -69.5t73 -104.5t24.5 -127.5q0 -92 -35 -169t-97.5 -134.5t-152.5 -94.5t-201 -45q76 -135 162 -269t184 -272q-38 -32 -87 -32h-3q-31 0 -51.5 13t-36.5 38q-88 131 -165.5 260t-149.5 258h-115 l-94 -512q-12 -57 -78 -57q-16 0 -34.5 5t-32.5 11zM416 680h186q203 0 301 86t98 231q0 100 -61 154.5t-174 54.5h-252z" />
<glyph unicode="S" horiz-adv-x="1050" d="M86 74q-1 8 -1 15q-1 45 21 67q24 24 54 24q29 0 55.5 -11t63 -25.5t90 -26t135.5 -11.5q80 0 145.5 19.5t112.5 56.5t72.5 87t25.5 112q0 141 -225 231l-76 31q-141 59 -221 141t-80 207q0 68 32 133.5t92 115.5t147 81t200 31q109 0 205 -25.5t172 -62.5 q0 -104 -72 -105q-23 0 -48 10.5t-62 22.5t-88.5 22.5t-124.5 10.5q-72 0 -129.5 -19.5t-99.5 -50.5t-64.5 -72t-22.5 -84q0 -86 59.5 -136t170.5 -97l71 -29q63 -25 119.5 -59.5t97.5 -79.5t66 -98.5t25 -116.5q0 -86 -37 -159.5t-104.5 -129t-161 -86.5t-203.5 -31 q-119 0 -219.5 27t-192.5 70z" />
<glyph unicode="T" horiz-adv-x="991" d="M221 1245q0 41 16.5 63.5t53.5 22.5h895q4 -16 4 -39q0 -41 -16.5 -63.5t-53.5 -22.5h-356l-213 -1161q-8 -57 -78 -57q-16 0 -34.5 5t-32.5 11l223 1202h-404q-4 16 -4 39z" />
<glyph unicode="U" horiz-adv-x="1290" d="M207 397q0 27 3 53.5t7 55.5l143 770q10 59 76 59q16 0 34.5 -5t33.5 -11l-148 -815q-4 -27 -7 -51.5t-3 -49.5q0 -129 74 -214t231 -85q178 0 285.5 101.5t142.5 292.5l144 778q10 59 75 59q16 0 35 -5t33 -11l-158 -852q-18 -102 -64 -192.5t-117 -157t-167 -104.5 t-215 -38q-111 0 -192.5 34t-136 91.5t-82 134t-27.5 162.5z" />
<glyph unicode="V" horiz-adv-x="1150" d="M254 1321q14 8 31.5 13t38.5 5q37 0 56 -16t23 -45l164 -1161l604 1171q16 31 40 41t49 10q31 0 49 -8t28 -16l-667 -1268q-34 -67 -111 -67h-2q-35 0 -58.5 6t-41.5 16z" />
<glyph unicode="W" horiz-adv-x="1673" d="M281 1321q14 8 31.5 13t37.5 5q72 0 74 -63l18 -668q3 -100 3 -198v-48q-1 -122 -5 -237q25 61 49.5 120.5t50 119t53.5 121t58 130.5l312 697q16 10 39.5 15t39.5 5q53 0 79 -23.5t30 -58.5l51 -635q10 -129 17.5 -251.5t13.5 -239.5q20 57 45 123.5t50.5 133.5 t50 131.5t46.5 119.5l256 655q10 29 34 38t46 9q29 0 45.5 -7t24.5 -15l-508 -1262q-16 -41 -44 -56t-56 -15q-33 0 -57.5 6t-41.5 16l-69 809q-6 72 -12.5 172t-12.5 195q-41 -98 -83 -194.5t-77 -172.5l-344 -758q-18 -41 -46.5 -57t-67.5 -16q-27 0 -50.5 6t-37.5 16z " />
<glyph unicode="X" horiz-adv-x="1093" d="M20 8l558 684l-291 615q10 10 33.5 19t46.5 9q33 0 48 -14t23 -31l232 -506l409 506q23 29 45.5 37t44.5 8q29 0 52.5 -7t38.5 -15l-533 -651l309 -652q-35 -20 -75 -20q-29 0 -48.5 9t-31.5 38l-248 528l-422 -524q-23 -29 -46.5 -40t-64.5 -11q-18 0 -41.5 5t-38.5 13z " />
<glyph unicode="Y" horiz-adv-x="1069" d="M236 1311q10 10 30.5 17t42.5 7q27 0 48.5 -9t33.5 -38l246 -610l461 616q23 27 42 36t48 9t52.5 -9t35.5 -17l-588 -762l-94 -506q-8 -57 -78 -57q-16 0 -34.5 5t-32.5 11l104 555z" />
<glyph unicode="Z" horiz-adv-x="1005" d="M86 53q0 35 15.5 73t52.5 83l821 995h-610q-70 0 -70 68q0 16 5 33.5t9 25.5h821q10 -25 11 -53q0 -35 -15.5 -73t-52.5 -83l-825 -995h614q70 0 70 -68q0 -16 -5 -33.5t-9 -25.5h-822q-10 25 -10 53z" />
<glyph unicode="[" horiz-adv-x="743" d="M57 -371q0 12 4 29l332 1792q4 20 14.5 35.5t38.5 15.5h369q4 -16 4 -39q0 -41 -16.5 -63.5t-52.5 -22.5h-236l-305 -1659h276q4 -16 4 -39q0 -41 -16 -63.5t-53 -22.5h-311q-31 0 -41.5 10.5t-10.5 26.5z" />
<glyph unicode="\" horiz-adv-x="698" d="M297 1348q10 6 25.5 11t31.5 5q63 0 70 -51l117 -1381q-10 -6 -25.5 -11t-32.5 -5q-63 0 -69 51z" />
<glyph unicode="]" horiz-adv-x="743" d="M55 -369q0 41 16.5 63.5t53.5 22.5h235l306 1659h-277q-4 16 -4 39q0 41 16.5 63.5t53.5 22.5h311q25 0 37 -13t12 -34q0 -10 -2 -18l-332 -1792q-4 -20 -14 -36t-39 -16h-369q-4 16 -4 39z" />
<glyph unicode="^" d="M492 940l251 293q16 10 37 14t39 4q68 0 94 -49l134 -266q-27 -20 -62 -21q-37 0 -55.5 16.5t-26.5 33.5l-90 192l-172 -207q-16 -20 -34.5 -27.5t-47.5 -7.5q-47 0 -67 25z" />
<glyph unicode="_" horiz-adv-x="935" d="M-63 -256l18 102h942l-20 -102h-940z" />
<glyph unicode="`" horiz-adv-x="925" d="M582 1339q0 63 77 93l236 -289q-16 -16 -36.5 -25.5t-45.5 -9.5q-18 0 -38.5 8t-39.5 27l-112 112q-41 41 -41 84z" />
<glyph unicode="a" horiz-adv-x="1058" d="M141 348q0 143 55.5 261t141.5 202t191.5 131t207.5 47q88 0 169 -29.5t141 -95.5l-72 -370q-17 -94 -29 -174q-10 -68 -10 -128v-20q0 -47 5 -89t20 -77q-27 -16 -68 -16q-47 0 -63.5 46t-16.5 107q0 16 1 35t3 37h-4q-66 -117 -154 -176t-198 -59q-63 0 -121.5 24.5 t-102.5 71.5t-70 115.5t-26 156.5zM279 340q0 -47 12 -91t35.5 -78t59.5 -53.5t83 -19.5q63 0 123.5 32t113 88t90.5 135t56 173l53 287q-20 18 -63 37.5t-109 19.5q-82 0 -163 -38.5t-145.5 -109.5t-105 -168t-40.5 -214z" />
<glyph unicode="b" horiz-adv-x="1054" d="M164 315q0 51 12 117l170 903q10 57 74 58q16 0 35.5 -5.5t33.5 -11.5l-122 -598l2 -2q27 39 62.5 78t81.5 69.5t102.5 50t121.5 19.5q66 0 123.5 -26.5t100.5 -75.5t68.5 -119t25.5 -156q0 -127 -46 -241.5t-125 -202.5t-183.5 -140t-221.5 -52q-68 0 -125 21.5t-99 63 t-66.5 104t-24.5 146.5zM291 307q0 -106 57 -156.5t139 -50.5q74 0 149 37t136.5 103.5t100 162t38.5 211.5q0 121 -53 192t-141 71q-66 0 -132.5 -34t-124 -98.5t-101.5 -157.5t-62 -212q-6 -37 -6 -68z" />
<glyph unicode="c" horiz-adv-x="894" d="M141 395q0 121 43 229.5t118 189.5t174 128t210 47q41 0 81 -7t75 -19.5t63.5 -27.5t46.5 -30q0 -47 -18.5 -73.5t-44.5 -26.5q-16 0 -35.5 9t-45.5 20.5t-62.5 20.5t-90.5 9q-68 0 -135 -31.5t-121.5 -91t-89.5 -145.5t-35 -197q0 -72 21.5 -126t58.5 -91t86 -56.5 t105 -19.5q51 0 90 9.5t68.5 19.5t53 19.5t44.5 9.5q51 0 51 -60q0 -18 -6 -43q-63 -35 -136 -56t-178 -21q-92 0 -164.5 31.5t-122.5 88t-77 131t-27 160.5z" />
<glyph unicode="d" horiz-adv-x="1056" d="M143 348q0 152 57.5 270.5t145.5 201.5t192.5 126t200.5 43q45 0 94.5 -9t96.5 -32l74 387q10 57 73 58q16 0 33.5 -5.5t32.5 -11.5l-168 -882q-18 -96 -28.5 -176t-10.5 -148q0 -96 25 -164q-27 -16 -68 -16q-47 0 -65.5 38t-18.5 97q0 16 1 31.5t3 31.5h-4 q-72 -104 -151.5 -156t-192.5 -52q-66 0 -124 24.5t-102 72.5t-70 116.5t-26 154.5zM281 348q0 -117 54 -183.5t146 -66.5q57 0 106.5 21.5t90.5 56.5t75.5 80t63.5 94l90 463q-18 18 -58 37.5t-114 19.5q-80 0 -160.5 -36.5t-146.5 -104t-106.5 -164t-40.5 -217.5z" />
<glyph unicode="e" horiz-adv-x="935" d="M145 385q0 137 49.5 250t128 192.5t177 123.5t198.5 44q74 0 126.5 -19.5t84 -52t47 -72.5t15.5 -79q0 -80 -46 -150.5t-134.5 -121.5t-216.5 -81t-289 -30v-14q0 -125 72.5 -200t211.5 -75q55 0 94 9.5t68 19.5t49.5 19.5t40.5 9.5q23 0 40.5 -16.5t17.5 -51.5 q0 -8 -1.5 -15.5l-3.5 -17.5q-59 -33 -144 -56.5t-177 -23.5q-100 0 -177 32t-128 87.5t-77 130t-26 158.5zM289 494q150 0 253 24.5t167.5 62t93 85t28.5 92.5q0 55 -37.5 90t-111.5 35q-63 0 -128 -29t-118 -80t-93 -122.5t-54 -157.5z" />
<glyph unicode="f" horiz-adv-x="659" d="M170 4l158 852h-119q-4 16 -4 35q0 78 61 78h82l17 84q35 193 135 277.5t248 84.5q61 0 124.5 -15.5t102.5 -31.5q0 -55 -17.5 -77.5t-46.5 -22.5q-37 0 -75.5 14t-108.5 14q-92 0 -148.5 -51t-78.5 -174l-19 -102h328q4 -16 4 -35q0 -78 -63 -78h-289l-150 -811 q-10 -57 -73 -57q-16 0 -35 5t-33 11z" />
<glyph unicode="g" horiz-adv-x="1042" d="M88 -332q0 47 17.5 65.5t39.5 18.5q20 0 41 -7t49.5 -14t67.5 -14.5t94 -7.5q178 0 272.5 126t137.5 370h-2q-74 -113 -157 -165t-193 -52q-63 0 -123 23.5t-106 70.5t-73.5 117.5t-27.5 165.5q0 158 56.5 275.5t141.5 196t185 118.5t190 40q98 0 188.5 -37.5 t162.5 -105.5l-142 -754q-18 -104 -57 -195t-102.5 -161t-153.5 -110t-213 -40q-33 0 -82 5.5t-96 15.5t-81 24.5t-34 30.5zM262 367q0 -121 57.5 -191t157.5 -70q68 0 129.5 34t111.5 92.5t87 137.5t55 171l49 258q-33 33 -87 55.5t-128 22.5q-80 0 -156.5 -37t-138 -103.5 t-99.5 -161t-38 -208.5z" />
<glyph unicode="h" horiz-adv-x="1075" d="M131 4l244 1331q10 57 74 58q31 0 67 -17l-113 -598l3 -2q59 92 148 155.5t204 63.5q129 0 207.5 -78.5t78.5 -222.5q0 -25 -3 -49t-7 -53l-100 -547q-10 -57 -74 -57q-16 0 -34.5 5t-32.5 11l106 592q4 25 6 47.5t2 42.5q0 98 -47 144.5t-127 46.5q-57 0 -118.5 -30 t-115 -85t-95.5 -135t-60 -183l-72 -399q-10 -57 -73 -57q-16 0 -35 5t-33 11z" />
<glyph unicode="i" horiz-adv-x="421" d="M131 4l168 916q10 57 74 57q16 0 34.5 -5t32.5 -11l-168 -916q-10 -57 -73 -57q-16 0 -35 5t-33 11zM348 1294q0 41 27.5 72t70.5 31q37 0 60.5 -28t23.5 -64q0 -41 -27.5 -71t-70.5 -30q-37 0 -60.5 25.5t-23.5 64.5z" />
<glyph unicode="j" horiz-adv-x="425" d="M-152 -342q0 47 46 66q70 27 112.5 57.5t69 68t41 86t26.5 113.5l162 871q10 57 74 57q16 0 34.5 -5t32.5 -11l-170 -910q-18 -98 -48.5 -172t-78 -129t-113 -93t-151.5 -65q-18 10 -27.5 29t-9.5 37zM352 1294q0 41 28 72t71 31q37 0 60.5 -28t23.5 -64q0 -41 -28 -71 t-71 -30q-37 0 -60.5 25.5t-23.5 64.5z" />
<glyph unicode="k" horiz-adv-x="921" d="M131 -4l246 1341q6 25 24.5 40.5t55.5 15.5q18 0 34.5 -3.5t26.5 -7.5l-160 -847q160 137 284 242.5t196 162.5q49 41 106 41q33 0 55.5 -11.5t34.5 -25.5q-68 -55 -139.5 -113.5t-141 -115t-135 -110.5t-122.5 -103q154 -238 413 -473q-23 -14 -49 -23.5t-53 -9.5 q-39 0 -61.5 15.5t-47.5 37.5q-80 72 -168 185.5t-178 242.5l-82 -434q-6 -25 -23.5 -40t-56.5 -15q-16 0 -32.5 2t-26.5 6z" />
<glyph unicode="l" horiz-adv-x="421" d="M131 4l244 1331q10 57 74 58q16 0 34.5 -5.5t32.5 -11.5l-244 -1331q-10 -57 -73 -57q-16 0 -35 5t-33 11z" />
<glyph unicode="m" horiz-adv-x="1560" d="M131 4l176 967q27 8 49 8q42 0 56 -32q7 -15 6 -39q0 -27 -8 -64l-21 -86h2q23 43 56.5 85t74.5 75.5t89 55t102 21.5q39 0 75.5 -12t67.5 -41t51.5 -75t26.5 -115q66 117 162 180t194 63q70 0 119 -26.5t77 -73.5q26 -47 34 -111q2 -21 3 -43q0 -44 -10 -92l-108 -604 q-10 -57 -74 -57q-16 0 -34.5 5t-32.5 11l116 631q10 51 10 90q0 147 -136 147h-1q-47 0 -100 -29.5t-101 -83.5t-86 -130t-55 -170l-73 -414q-10 -57 -74 -57q-16 0 -34.5 5t-33.5 11l117 631q7 42 7 77q0 62 -22 100q-36 60 -116 60q-47 0 -99.5 -33.5t-100.5 -91 t-85 -136.5t-53 -167l-72 -399q-10 -57 -73 -57q-16 0 -35 5t-33 11z" />
<glyph unicode="n" horiz-adv-x="1075" d="M131 4l174 967q27 8 53 8q31 0 49.5 -15.5t18.5 -45.5q0 -8 -4 -29l-25 -111l2 -2q59 92 151.5 155.5t207.5 63.5q129 0 207.5 -78.5t78.5 -222.5q0 -25 -3 -49t-7 -53l-100 -547q-10 -57 -74 -57q-16 0 -34.5 5t-32.5 11l106 592q4 25 6 47.5t2 42.5q0 98 -47 144.5 t-127 46.5q-57 0 -118.5 -30t-115 -85t-95.5 -135t-60 -183l-72 -399q-10 -57 -73 -57q-16 0 -35 5t-33 11z" />
<glyph unicode="o" horiz-adv-x="1056" d="M141 387q0 119 42 228.5t116 193.5t174 135t217 51q86 0 154.5 -30.5t116 -85t72 -130t24.5 -163.5q0 -119 -40 -228.5t-111.5 -192.5t-171 -133t-216.5 -50q-86 0 -155.5 30.5t-118.5 85t-76 128t-27 161.5zM279 389q0 -74 20 -128t54 -91t79 -54.5t96 -17.5 q72 0 142.5 35t126 98.5t90.5 153.5t35 199q0 141 -67 218t-179 77q-72 0 -143.5 -37t-128 -101.5t-91 -154.5t-34.5 -197z" />
<glyph unicode="p" horiz-adv-x="1069" d="M57 -377l244 1348q27 8 53 8q31 0 49.5 -15.5t18.5 -45.5q0 -8 -4 -29l-23 -111l2 -2q55 86 141.5 151.5t206.5 65.5q80 0 141.5 -31.5t101.5 -84t60.5 -120t20.5 -141.5q0 -139 -41 -254.5t-114.5 -200.5t-175 -132t-222.5 -47q-147 0 -246 79l-71 -397q-10 -57 -74 -57 q-16 0 -34.5 5t-33.5 11zM293 186q43 -49 105.5 -68.5t127.5 -19.5q74 0 148 36t131 102.5t93 164t36 220.5q0 49 -13.5 96t-40 82t-65.5 56.5t-88 21.5q-61 0 -122.5 -30t-114 -85t-92.5 -132t-56 -171z" />
<glyph unicode="q" horiz-adv-x="1024" d="M141 350q0 143 55.5 261t141.5 202t191.5 130t207.5 46q88 0 168 -28.5t139 -94.5l-223 -1202q-10 -57 -73 -57q-16 0 -35 5t-33 11l106 531h-2q-59 -80 -139 -127t-184 -47q-63 0 -121.5 24.5t-102.5 72.5t-70 116.5t-26 156.5zM279 340q0 -47 12 -91t38.5 -78 t65.5 -53.5t88 -19.5q51 0 107.5 26t105.5 75t88 119.5t56 160.5l65 334q-18 18 -58 37.5t-114 19.5q-78 0 -157.5 -38.5t-145 -109.5t-107.5 -168t-44 -214z" />
<glyph unicode="r" horiz-adv-x="657" d="M131 4l174 967q27 8 49 8q46 -1 62 -27q8 -13 8 -35q0 -23 -8 -57l-31 -129h2q57 113 150.5 187.5t203.5 74.5q4 0 19.5 -1t30.5 -5q6 -23 6 -45q-2 -35 -25.5 -59.5t-64.5 -26.5q-57 -2 -114.5 -29.5t-109 -83t-90.5 -139.5t-57 -196l-64 -363q-10 -57 -73 -57 q-16 0 -35 5t-33 11z" />
<glyph unicode="s" horiz-adv-x="866" d="M88 66q-1 8 -1 16q1 38 17 60q20 26 50 26q20 0 45.5 -10.5t61.5 -23.5t84 -23.5t114 -10.5q111 0 176 49.5t65 120.5q0 27 -6 48.5t-23.5 40t-50 36t-83.5 35.5l-105 37q-131 47 -179 111.5t-48 128.5q0 61 26.5 114t75.5 92t120 60.5t159 21.5q92 0 172 -18.5 t145 -50.5q-6 -98 -69 -99q-18 0 -42 8.5t-54.5 18.5t-71.5 18.5t-95 8.5q-106 0 -172.5 -43t-66.5 -119q0 -51 45 -81t110 -52l113 -39q127 -43 180.5 -107.5t53.5 -154.5q0 -47 -19.5 -100.5t-67 -97.5t-125 -72.5t-194.5 -28.5q-98 0 -183 22.5t-157 57.5z" />
<glyph unicode="t" horiz-adv-x="755" d="M184 891q0 78 62 78h106l39 219q10 57 74 57q16 0 34.5 -5t32.5 -11l-49 -260h332q4 -16 4 -35q0 -78 -63 -78h-293l-103 -567q-4 -33 -4 -60q0 -43 31 -83t117 -40q31 0 56.5 7.5t49 16.5t42 17.5t32.5 8.5q20 0 35.5 -13.5t15.5 -42.5q0 -16 -6 -41q-119 -73 -239 -73 h-3q-115 0 -188.5 67.5t-73.5 190.5q0 18 2 38.5t6 43.5l99 530h-144q-4 16 -4 35z" />
<glyph unicode="u" horiz-adv-x="1081" d="M178 283q0 23 3 48t7 54l101 537q10 57 73 57q16 0 35 -5t33 -11l-106 -582q-4 -25 -6.5 -47.5t-2.5 -42.5q0 -98 47.5 -144.5t126.5 -46.5q57 0 118 29t115 83t94 130t58 170l76 412q8 55 74 55q16 0 35.5 -5t34.5 -11l-90 -469q-20 -100 -30.5 -180.5t-10.5 -149.5 q0 -88 20 -158q-12 -8 -29.5 -12t-46.5 -4q-45 0 -60.5 38t-15.5 91q0 41 7 84h-4q-59 -92 -148.5 -156.5t-220.5 -64.5q-129 0 -208 78.5t-79 222.5z" />
<glyph unicode="v" horiz-adv-x="858" d="M154 961q10 8 25.5 13t31.5 5q43 0 62.5 -23.5t23.5 -50.5l131 -786q70 133 132.5 259t112.5 230.5t88 182t58 114.5q25 45 52.5 59.5t50.5 14.5q29 0 45 -8t26 -15q-109 -217 -221.5 -432t-228.5 -432q-27 -49 -63 -77.5t-89 -28.5q-37 0 -67 12z" />
<glyph unicode="w" horiz-adv-x="1351" d="M195 958q33 20 63 21q33 0 56.5 -18.5t27.5 -69.5q2 -47 4 -137t5 -200t5 -225.5t6 -213.5q16 35 45 100.5t65 145t75 167.5t75.5 171t68.5 152t52 112q33 16 60 16q51 0 81.5 -28.5t41.5 -94.5q12 -82 21 -180t16.5 -199.5t11.5 -199t8 -177.5q29 63 71 166t88 218.5 t91 231t80 206.5q23 57 80 57q23 0 40 -7t27 -16q-92 -219 -176 -432t-182 -426q-23 -51 -60.5 -78.5t-97.5 -27.5q-37 0 -67 12q-6 102 -12.5 213t-14.5 218.5t-18.5 207.5t-24.5 182q-39 -82 -85 -184t-90 -204.5t-84 -192.5t-69 -146q-27 -49 -65.5 -77.5t-91.5 -28.5 q-37 0 -68 12z" />
<glyph unicode="x" horiz-adv-x="911" d="M61 20q111 119 214.5 235t201.5 239q-59 117 -117.5 233.5t-117.5 226.5q16 12 35.5 18.5t35.5 6.5q25 0 49.5 -13.5t40.5 -47.5l158 -336q45 57 84 110t71 99.5t56.5 82t40.5 56.5q23 29 45.5 39t44.5 10q20 0 41 -8t33 -23q-29 -41 -70 -96t-88 -116.5t-100 -127 t-105 -129.5l232 -469q-35 -20 -66 -20q-37 0 -60.5 16.5t-41.5 56.5l-146 326q-18 -25 -50.5 -66.5t-71.5 -90t-81 -99.5t-79 -94q-16 -20 -48 -34.5t-61 -14.5q-25 0 -46 7t-34 23z" />
<glyph unicode="y" horiz-adv-x="868" d="M25 -354q94 96 165.5 179t143.5 187q-35 248 -75 483.5t-107 462.5q10 10 25.5 15.5t29.5 5.5q35 0 63.5 -20.5t51.5 -94.5q14 -47 29.5 -129t30.5 -180t27.5 -204.5t18.5 -203.5q51 82 105.5 186.5t103.5 209t88 196.5t63 152q23 51 52.5 69.5t60.5 18.5q23 0 39 -6 t25 -15q-90 -211 -177.5 -392t-178.5 -342t-192.5 -303t-221.5 -275q-35 -41 -82 -41q-29 0 -51.5 12t-36.5 29z" />
<glyph unicode="z" horiz-adv-x="874" d="M59 47q0 29 11.5 51.5t33.5 46.5l670 715q-61 -2 -133 -4t-137.5 -3t-116.5 -2t-72 -1q-33 2 -56 15.5t-23 47.5q0 16 5 34t9 26h690q10 -25 10 -51q0 -47 -39 -86l-682 -721q61 2 139 4t150 4t129.5 3t77.5 1q33 -2 56.5 -18.5t23.5 -51.5q0 -16 -6 -32.5t-11 -24.5 h-720q-4 10 -6.5 22.5t-2.5 24.5z" />
<glyph unicode="{" horiz-adv-x="577" d="M164 -129q0 61 21.5 123.5t46 121t46 112t21.5 96.5q0 53 -40 77.5t-95 36.5l14 97q55 12 93 26t61.5 39t34 62.5t10.5 95.5q0 49 -4 99t-4 87q0 59 14 115.5t47 108t86 97.5t131 85q43 -23 43 -62q0 -41 -31 -59q-63 -37 -97 -80t-48 -93t-15 -105.5t-1 -114.5 q0 -66 -3 -121.5t-20.5 -101.5t-52.5 -80.5t-96 -55.5q51 -29 71.5 -66.5t20.5 -82.5q0 -43 -20.5 -103.5t-44 -123t-44 -123t-20.5 -105.5q0 -41 17.5 -83t64.5 -77q25 -20 24 -49q0 -43 -69 -61q-88 59 -125 130.5t-37 137.5z" />
<glyph unicode="|" horiz-adv-x="534" d="M129 -385l313 1694q4 23 20.5 37t51.5 14q16 0 30.5 -3t22.5 -7l-313 -1692q-6 -51 -72 -51q-33 0 -53 8z" />
<glyph unicode="}" horiz-adv-x="577" d="M55 -336q0 41 31 60q63 37 97 79.5t48.5 93t15.5 105.5t1 115q0 63 3 119.5t20.5 102.5t52 80t96.5 56q-51 29 -71.5 67t-20.5 83q0 43 20.5 103t44 122.5t44 123t20.5 105.5q0 41 -17.5 83t-64.5 77q-25 23 -25 53q2 23 17.5 36t52.5 22q88 -59 125 -131t37 -138 q0 -61 -21.5 -123.5t-46.5 -121t-46.5 -111.5t-21.5 -96q0 -53 40 -78t96 -37l-15 -96q-55 -12 -93 -26.5t-61.5 -39t-33.5 -62.5t-10 -95q0 -49 4 -99.5t4 -87.5q0 -119 -61.5 -224.5t-217.5 -180.5q-43 23 -43 61z" />
<glyph unicode="~" d="M313 356l201 293q12 8 33.5 14.5t48.5 6.5q29 0 47.5 -10.5t34.5 -26.5l166 -201l149 225h111l-193 -286q-16 -10 -36.5 -17.5t-43.5 -7.5q-39 0 -57 13.5t-33 29.5l-157 191l-154 -224h-117z" />
<glyph unicode="&#xa1;" horiz-adv-x="509" d="M172 12l186 852q6 27 21.5 36t40.5 9q20 0 37 -14l-115 -827q-10 -74 -90 -74q-27 0 -47.5 6t-32.5 12zM385 1241q0 41 27.5 71.5t70.5 30.5q39 0 62.5 -26.5t23.5 -65.5q0 -41 -27.5 -72.5t-70.5 -31.5q-39 0 -62.5 27.5t-23.5 66.5z" />
<glyph unicode="&#xa2;" d="M297 477q0 113 38 214.5t103.5 181t153.5 131t188 63.5l43 225q10 47 54 47q23 0 39 -7t22 -11l-47 -254q68 -8 127 -31.5t90 -48.5q0 -47 -18.5 -73.5t-45.5 -26.5q-14 0 -29.5 7t-36 16.5t-47 18.5t-63.5 13l-141 -754q45 2 79 12.5t61.5 19.5t49 17.5t39.5 8.5 q51 0 52 -60q-1 -18 -7 -43q-61 -35 -129.5 -55t-166.5 -22l-41 -226q-4 -23 -18.5 -35t-43.5 -12q-18 0 -32.5 3t-22.5 7l49 271q-72 14 -127 51t-94 90t-58.5 119.5t-19.5 142.5zM430 479q0 -115 53.5 -185.5t137.5 -94.5l137 741q-66 -6 -125.5 -47t-104.5 -105.5 t-71.5 -145.5t-26.5 -163z" />
<glyph unicode="&#xa3;" d="M186 55q0 49 35 96.5t79 103.5t84 131t52 179h-178q-8 18 -8 49q0 37 17.5 55.5t45.5 18.5h129q0 41 -6 89t-6 100q0 92 23.5 179t76 152.5t135.5 105.5t199 40q98 0 185.5 -34t140.5 -69q0 -41 -17.5 -68.5t-48.5 -27.5q-20 0 -42.5 11.5t-54.5 25.5t-75 25.5t-104 11.5 q-76 0 -130 -26.5t-89 -76t-51.5 -117t-16.5 -149.5q0 -47 3 -88t7 -84h336q4 -10 6 -23.5t2 -25.5q0 -37 -17 -55.5t-46 -18.5h-285q-10 -68 -28.5 -124t-47 -106t-65.5 -100.5t-82 -105.5h639q2 -6 4 -19.5t2 -23.5q0 -41 -16.5 -63.5t-54.5 -22.5h-723q-4 10 -6.5 24.5 t-2.5 30.5z" />
<glyph unicode="&#xa4;" d="M266 197l125 127q-29 45 -45 96t-16 108q0 111 61 201l-125 127l90 92l127 -129q41 31 92.5 48.5t108.5 17.5t109.5 -17.5t93.5 -48.5l129 127l88 -88l-129 -129q66 -84 65 -201q0 -115 -63 -202l127 -127l-88 -90l-129 127q-88 -63 -203 -64q-115 0 -203 64l-127 -127z M440 528q0 -51 19.5 -95t52.5 -76.5t78 -52t94 -19.5q51 0 95 19.5t78 52t53.5 76.5t19.5 95q0 49 -19.5 94.5t-53.5 78t-78 52t-95 19.5q-49 0 -94 -19.5t-78 -52t-52.5 -77.5t-19.5 -95z" />
<glyph unicode="&#xa5;" d="M258 1311q10 10 30.5 17t43.5 7q27 0 48 -9t34 -38l254 -569l452 575q23 27 42.5 36t47.5 9q29 0 52.5 -9t35.5 -17l-575 -713h321q4 -10 6.5 -23.5t2.5 -25.5q0 -37 -17.5 -55.5t-46.5 -18.5h-293l-80 -432q-8 -57 -77 -57q-16 0 -35 5t-33 11l88 473h-278q-8 18 -9 49 q0 37 17.5 55.5t46.5 18.5h248z" />
<glyph unicode="&#xa6;" horiz-adv-x="532" d="M127 -389l131 719q4 23 20.5 37t51.5 14q16 0 30.5 -3t24.5 -7l-131 -717q-4 -23 -21.5 -37t-52.5 -14q-16 0 -31.5 2t-21.5 6zM305 590l135 719q4 23 20.5 37t51.5 14q16 0 30.5 -3t22.5 -7l-131 -717q-4 -23 -20.5 -37t-51.5 -14q-16 0 -31.5 2t-25.5 6z" />
<glyph unicode="&#xa7;" d="M213 -43q0 43 14.5 71.5t44.5 28.5q20 0 48 -9t64 -19.5t79 -19.5t96 -9q78 0 130 14.5t84 39t45 57t13 67.5q0 45 -32.5 80t-128.5 68l-107 34q-76 25 -122 55.5t-71.5 64.5t-33.5 70t-8 68q0 92 57 152.5t145 95.5q-59 33 -97 80t-38 125q0 57 28 108.5t78 90.5 t120.5 61.5t158.5 22.5q80 0 164 -16.5t164 -49.5q4 -43 -12.5 -70.5t-48.5 -27.5q-20 0 -46 7t-59 16.5t-73 17.5t-89 8q-123 0 -188.5 -46t-65.5 -120q0 -27 8.5 -47t29 -37.5t55 -34t90.5 -34.5l104 -33q137 -45 186.5 -109.5t49.5 -142.5q0 -86 -57.5 -149.5 t-145.5 -104.5q63 -35 93 -85t30 -116q0 -51 -19.5 -103t-64.5 -95t-121 -70t-186 -27q-92 0 -187.5 18.5t-177.5 53.5zM453 635q0 -84 74.5 -126t207.5 -79q78 18 130.5 68.5t52.5 124.5q0 41 -19.5 70.5t-56.5 52t-89.5 40t-117.5 33.5q-80 -18 -131 -70.5t-51 -113.5z " />
<glyph unicode="&#xa8;" horiz-adv-x="925" d="M446 1239q0 39 25 67.5t66 28.5q35 0 56 -25.5t21 -60.5q0 -39 -24.5 -65.5t-65.5 -26.5q-35 0 -56.5 23.5t-21.5 58.5zM776 1239q0 39 24.5 67.5t65.5 28.5q35 0 56.5 -25.5t21.5 -60.5q0 -39 -24.5 -65.5t-65.5 -26.5q-35 0 -56.5 23.5t-21.5 58.5z" />
<glyph unicode="&#xa9;" horiz-adv-x="1439" d="M147 664q0 150 49.5 275.5t138.5 217.5t212 143.5t270 51.5t269 -51.5t211 -142.5t138.5 -217t49.5 -277q0 -152 -49.5 -278t-138.5 -218t-211 -143.5t-269 -51.5t-271 51.5t-212 142.5t-137.5 218t-49.5 279zM248 664q0 -129 42 -238t117.5 -187.5t180 -123.5t229.5 -45 t229.5 44t179 123.5t116.5 188.5t42 238q0 127 -43 235.5t-118.5 187t-180 123.5t-227.5 45q-125 0 -229.5 -44t-179 -122.5t-116.5 -187t-42 -237.5zM457 666q0 80 26.5 149.5t75.5 121.5t117.5 83t152.5 31q78 0 133.5 -15.5t102.5 -42.5q4 -47 -16.5 -67.5t-49.5 -20.5 q-12 0 -24 6.5t-30.5 12.5t-45.5 12t-65 6q-53 0 -100.5 -18.5t-82.5 -54t-55.5 -87t-20.5 -116.5q0 -66 20.5 -118t55.5 -88t82 -55.5t101 -19.5q82 0 120.5 18.5t61.5 18.5q29 0 46 -18.5t13 -67.5q-57 -31 -120 -45.5t-124 -14.5q-84 0 -153.5 31t-118.5 84t-75.5 124 t-26.5 151z" />
<glyph unicode="&#xaa;" horiz-adv-x="862" d="M223 831q0 119 46 213.5t117 161t156 101t163 34.5q63 0 129.5 -22.5t121.5 -75.5l-65 -299q-14 -76 -22.5 -139.5t-8.5 -116.5q0 -80 21 -133q-27 -10 -54 -10q-47 0 -65.5 31.5t-18.5 80.5v21.5t2 21.5h-2q-55 -84 -114.5 -123.5t-143.5 -39.5q-53 0 -100 19t-83 57 t-57.5 93.5t-21.5 124.5zM350 827q0 -88 39 -137t111 -49q45 0 83 18.5t68.5 48t56 66.5t46.5 74l69 350q-14 14 -46 27.5t-79 13.5q-63 0 -125.5 -28.5t-111.5 -83t-80 -130t-31 -170.5z" />
<glyph unicode="&#xab;" horiz-adv-x="1095" d="M150 485l22 117l483 301q4 -8 12.5 -24.5t8.5 -42.5q0 -29 -12.5 -53.5t-40.5 -41.5l-332 -204l244 -191q37 -29 36 -74q0 -29 -15 -50t-32 -38zM574 485l22 117l483 301q4 -8 12.5 -24.5t8.5 -42.5q0 -29 -12.5 -53.5t-40.5 -41.5l-332 -204l244 -191q37 -29 36 -74 q0 -29 -15 -50t-32 -38z" />
<glyph unicode="&#xac;" horiz-adv-x="1232" d="M139 535q0 37 15.5 51t42.5 14h893q27 0 42 -14.5t15 -50.5v-488q0 -23 -15.5 -37t-52.5 -14q-18 0 -33.5 2t-25.5 6v469h-875q-2 10 -4 26.5t-2 35.5z" />
<glyph unicode="&#xad;" horiz-adv-x="677" d="M141 457v27.5t4 33.5q6 35 24.5 50.5t41.5 15.5h498q2 -10 0 -26.5t-7 -33.5q-8 -39 -23 -53t-38 -14h-500z" />
<glyph unicode="&#xae;" horiz-adv-x="743" d="M207 1018q0 68 24.5 128t68.5 104t104.5 71t132.5 27q70 0 130 -27t104 -71t68.5 -104.5t24.5 -127.5q0 -72 -24.5 -132.5t-68.5 -104.5t-104 -68.5t-130 -24.5q-72 0 -132.5 24.5t-104.5 69.5t-68.5 104.5t-24.5 131.5zM279 1018q0 -66 22.5 -114t59 -82t83 -50 t93.5 -16t93 16t82 50t58.5 82t22.5 114q0 61 -22.5 110.5t-58.5 83t-82 51t-93 17.5t-93.5 -17.5t-83 -51t-59 -83t-22.5 -110.5zM422 848v315q0 12 6 20.5t25 8.5h96q55 0 90 -29.5t35 -81.5q0 -35 -22.5 -63.5t-71.5 -36.5l100 -125q-4 -4 -16.5 -8t-28.5 -4t-27.5 7 t-19.5 17l-82 107h-14v-105q0 -26 -37 -26q-16 0 -33 4zM492 1036h49q33 0 47 13.5t14 31.5q0 47 -55 47h-55v-92z" />
<glyph unicode="&#xaf;" horiz-adv-x="925" d="M455 1268q0 37 17 54t46 17h465q10 -25 10 -47q0 -37 -17.5 -54t-45.5 -17h-465q-10 25 -10 47z" />
<glyph unicode="&#xb0;" horiz-adv-x="788" d="M242 1032q0 68 25.5 126.5t68.5 101.5t101.5 68.5t125.5 25.5q68 0 126.5 -25.5t101.5 -68.5t68.5 -101.5t25.5 -126.5t-25.5 -126t-68.5 -101t-101.5 -68.5t-126.5 -25.5t-126 25.5t-101 68.5t-68.5 101.5t-25.5 125.5zM348 1032q0 -45 16.5 -84t46 -68.5t68.5 -46 t84 -16.5t84 16.5t67.5 46t46 68.5t17.5 84t-17.5 84t-46 67.5t-67.5 46t-84 17.5t-84 -17.5t-68.5 -46t-46 -67.5t-16.5 -84z" />
<glyph unicode="&#xb1;" d="M207 879q0 37 15.5 60.5t45.5 23.5h373l76 395q10 57 74 57q16 0 33.5 -5t31.5 -11l-82 -436h428q2 -6 3 -18.5t1 -22.5q0 -37 -14 -61.5t-49 -24.5h-389l-80 -418q-10 -57 -72 -58q-16 0 -35.5 5.5t-34.5 11.5l91 459h-412q-2 6 -3 19t-1 24z" />
<glyph unicode="&#xb2;" horiz-adv-x="825" d="M217 510q0 55 47 94l320 252q86 68 133 123t47 125q0 68 -45 104.5t-117 36.5q-47 0 -77.5 -9t-53 -20.5t-41 -20.5t-39.5 -9q-29 0 -41 24.5t-10 61.5q47 35 119.5 58.5t138.5 23.5q61 0 112.5 -17.5t88.5 -48.5t58.5 -75t21.5 -97q0 -106 -57.5 -186t-182.5 -170 l-256 -187h391q8 -14 11 -31.5t3 -27.5q0 -55 -47 -55h-514q-4 8 -7 21.5t-3 29.5z" />
<glyph unicode="&#xb3;" horiz-adv-x="894" d="M254 520q-4 31 11.5 57.5t43.5 26.5q18 0 39 -9t47.5 -20.5t61.5 -20.5t84 -9q106 0 163.5 51t57.5 127q0 51 -42 91t-142 40h-105q-20 0 -30.5 14.5t-10.5 34.5q0 16 5 30.5t9 24.5h119q131 0 189.5 47.5t58.5 116.5q0 53 -35 87t-119 34q-43 0 -76.5 -7t-58 -15.5 t-44 -15.5t-34.5 -7q-61 0 -49 86q47 29 119 48.5t143 19.5q135 0 202 -59.5t67 -159.5q0 -78 -53.5 -141.5t-147.5 -86.5q74 -23 115 -68.5t41 -121.5q0 -61 -27 -112.5t-73 -88.5t-106.5 -56.5t-127.5 -19.5q-111 0 -179.5 25.5t-115.5 56.5z" />
<glyph unicode="&#xb4;" horiz-adv-x="925" d="M518 1143l322 301q31 -14 48 -34.5t17 -47.5t-9 -46.5t-34 -37.5l-180 -135q-53 -35 -90 -35q-45 0 -74 35z" />
<glyph unicode="&#xb6;" horiz-adv-x="1118" d="M195 829q0 104 40.5 196.5t112.5 160t169 106.5t210 39h389q39 0 49.5 -18.5t5.5 -38.5l-225 -1231q-4 -20 -21.5 -33.5t-54.5 -13.5q-16 0 -28.5 2t-22.5 6l223 1215h-96l-217 -1176q-4 -20 -21.5 -33.5t-54.5 -13.5q-14 0 -27.5 2t-23.5 6l88 473h-129 q-84 0 -151.5 27.5t-115.5 75t-73.5 112t-25.5 137.5zM324 834q0 -98 58 -170t173 -72h158l114 627h-131q-72 0 -138 -29t-118.5 -81t-84 -123t-31.5 -152z" />
<glyph unicode="&#xb7;" horiz-adv-x="395" d="M192 504q0 41 28 72.5t71 31.5q39 0 62.5 -27.5t23.5 -66.5q0 -41 -28 -71.5t-71 -30.5q-39 0 -62.5 26.5t-23.5 65.5z" />
<glyph unicode="&#xb8;" horiz-adv-x="925" d="M250 -375q0 66 49 66q29 0 55.5 -14.5t77.5 -14.5q47 0 84 24.5t47 71.5q4 33 -16.5 59.5t-81.5 26.5h-23q-25 0 -35 8.5t-10 22.5t11 37l43 88h88l-41 -78q53 -4 85.5 -21.5t49 -42t20.5 -53t0 -55.5q-8 -45 -30.5 -77.5t-54 -54t-69.5 -32t-75 -10.5q-57 0 -100 15.5 t-74 33.5z" />
<glyph unicode="&#xb9;" horiz-adv-x="704" d="M334 1153q0 43 47 66l221 112h82l-156 -846q-4 -23 -16 -35t-41 -12q-18 0 -34.5 4t-26.5 9l135 727l-183 -88q-8 6 -18 24.5t-10 38.5z" />
<glyph unicode="&#xba;" horiz-adv-x="878" d="M231 852q0 98 35 187t96.5 157t143.5 107.5t176 39.5q76 0 134 -25.5t98 -69.5t59.5 -103t19.5 -127q0 -94 -31.5 -183.5t-90 -158t-141.5 -109.5t-183 -41q-76 0 -134.5 24.5t-98.5 69t-61.5 103.5t-21.5 129zM350 850q0 -111 60.5 -163t150.5 -52q49 0 105.5 24.5 t102.5 72.5t77 120t31 168q0 104 -56.5 159.5t-148.5 55.5q-61 0 -118.5 -28.5t-102.5 -80t-73 -122t-28 -154.5z" />
<glyph unicode="&#xbb;" horiz-adv-x="1095" d="M174 252q0 29 12.5 54.5t40.5 41.5l332 205l-244 190q-37 29 -36 72q0 29 15 50.5t32 37.5l374 -301l-22 -117l-483 -301q-4 8 -12.5 24.5t-8.5 43.5zM604 252q0 29 12.5 54.5t40.5 41.5l332 205l-244 190q-37 29 -36 72q0 29 15 50.5t32 37.5l374 -301l-22 -117 l-483 -301q-4 8 -12.5 24.5t-8.5 43.5z" />
<glyph unicode="&#xbc;" horiz-adv-x="1773" d="M273 1153q0 43 47 66l221 112h82l-156 -846q-4 -23 -16 -35t-41 -12q-18 0 -34.5 4t-26.5 9l135 727l-183 -88q-8 6 -18 24.5t-10 38.5zM482 184l735 969q18 25 49 25q23 0 38 -9.5t25 -19.5l-735 -969q-23 -25 -53 -24q-20 0 -35.5 9t-23.5 19zM1003 233q0 23 7.5 44.5 t27.5 44.5l502 567h113l-111 -590h129q2 -6 4 -18.5t2 -28.5q0 -25 -10 -43.5t-33 -18.5h-110l-27 -145q-4 -20 -15.5 -33.5t-41.5 -13.5q-23 0 -37.5 6t-22.5 10l33 176h-401q-8 16 -9 43zM1136 297h295l76 418z" />
<glyph unicode="&#xbd;" horiz-adv-x="1812" d="M275 1153q0 43 47 66l221 112h82l-156 -846q-4 -23 -16 -35t-41 -12q-18 0 -34.5 4t-26.5 9l135 727l-183 -88q-8 6 -18 24.5t-10 38.5zM467 184l735 969q18 25 49 25q23 0 38 -9.5t25 -19.5l-735 -969q-23 -25 -53 -24q-20 0 -35.5 9t-23.5 19zM1081 55q0 55 47 94 l320 252q86 68 133 123t47 125q0 68 -45 104.5t-117 36.5q-47 0 -77.5 -9t-53 -20.5t-41 -20.5t-39.5 -9q-29 0 -41 24.5t-10 61.5q47 35 119.5 58.5t138.5 23.5q61 0 112.5 -17.5t88.5 -48.5t58.5 -75t21.5 -97q0 -106 -57.5 -186t-182.5 -170l-256 -187h391 q8 -14 11 -31.5t3 -27.5q0 -55 -47 -55h-514q-4 8 -7 21.5t-3 29.5z" />
<glyph unicode="&#xbe;" horiz-adv-x="2017" d="M207 520q-4 31 11.5 57.5t43.5 26.5q18 0 39 -9t47.5 -20.5t61.5 -20.5t84 -9q106 0 163.5 51t57.5 127q0 51 -42 91t-142 40h-105q-20 0 -30.5 14.5t-10.5 34.5q0 16 5 30.5t9 24.5h119q131 0 189.5 47.5t58.5 116.5q0 53 -35 87t-119 34q-43 0 -76.5 -7t-58 -15.5 t-44 -15.5t-34.5 -7q-61 0 -49 86q47 29 119 48.5t143 19.5q135 0 202 -59.5t67 -159.5q0 -78 -53.5 -141.5t-147.5 -86.5q74 -23 115 -68.5t41 -121.5q0 -61 -27 -112.5t-73 -88.5t-106.5 -56.5t-127.5 -19.5q-111 0 -179.5 25.5t-115.5 56.5zM717 184l735 969q18 25 49 25 q23 0 38 -9.5t25 -19.5l-735 -969q-23 -25 -53 -24q-20 0 -35.5 9t-23.5 19zM1239 233q0 23 7.5 44.5t27.5 44.5l502 567h113l-111 -590h129q2 -6 4 -18.5t2 -28.5q0 -25 -10 -43.5t-33 -18.5h-110l-27 -145q-4 -20 -15.5 -33.5t-41.5 -13.5q-23 0 -37.5 6t-22.5 10l33 176 h-401q-8 16 -9 43zM1372 297h295l76 418z" />
<glyph unicode="&#xbf;" horiz-adv-x="886" d="M115 279q0 61 20.5 112t53 93t73.5 75t84 59q68 41 114 70t77.5 56.5t52 58.5t33.5 74q8 27 25.5 39t41.5 12q20 -1 45 -19q-10 -94 -50 -156.5t-94 -108.5t-113.5 -81t-111 -73.5t-84 -88t-32.5 -122.5q0 -78 55 -123t162 -45q68 0 118 12t88 27.5t66.5 27.5t51.5 12 q29 0 49 -27.5t10 -70.5q-66 -39 -170.5 -72.5t-220.5 -33.5q-80 0 -144.5 21.5t-108.5 60t-67.5 93t-23.5 118.5zM651 1251q0 41 28 72t71 31q39 0 62.5 -27t23.5 -65q0 -41 -28 -73t-71 -32q-39 0 -62.5 27.5t-23.5 66.5z" />
<glyph unicode="&#xc0;" horiz-adv-x="1153" d="M2 14l688 1299q16 12 44 19t52 7q59 0 86 -21.5t33 -62.5l195 -1245q-14 -10 -32.5 -15t-35.5 -5q-29 0 -53.5 13t-30.5 58l-47 353h-530l-195 -375q-16 -29 -41.5 -39t-48.5 -10q-25 0 -49.5 7t-34.5 17zM434 541h449l-99 673zM602 1634q0 63 77 93l236 -289 q-16 -16 -36.5 -25.5t-45.5 -9.5q-18 0 -38.5 8t-39.5 27l-112 112q-41 41 -41 84z" />
<glyph unicode="&#xc1;" horiz-adv-x="1153" d="M2 14l688 1299q16 12 44 19t52 7q59 0 86 -21.5t33 -62.5l195 -1245q-14 -10 -32.5 -15t-35.5 -5q-29 0 -53.5 13t-30.5 58l-47 353h-530l-195 -375q-16 -29 -41.5 -39t-48.5 -10q-25 0 -49.5 7t-34.5 17zM434 541h449l-99 673zM696 1438l322 301q31 -14 48 -34.5 t17 -47.5t-9 -46.5t-34 -37.5l-180 -135q-53 -35 -90 -35q-45 0 -74 35z" />
<glyph unicode="&#xc2;" horiz-adv-x="1153" d="M2 14l688 1299q16 12 44 19t52 7q59 0 86 -21.5t33 -62.5l195 -1245q-14 -10 -32.5 -15t-35.5 -5q-29 0 -53.5 13t-30.5 58l-47 353h-530l-195 -375q-16 -29 -41.5 -39t-48.5 -10q-25 0 -49.5 7t-34.5 17zM434 541h449l-99 673zM569 1444l227 258q33 18 66 18 q35 0 53.5 -13t30.5 -36l129 -240q-27 -20 -55 -20q-37 0 -54.5 16.5t-25.5 32.5l-82 166l-150 -180q-16 -20 -31.5 -27.5t-35.5 -7.5q-23 0 -42.5 11t-29.5 22z" />
<glyph unicode="&#xc3;" horiz-adv-x="1153" d="M2 14l688 1299q16 12 44 19t52 7q59 0 86 -21.5t33 -62.5l195 -1245q-14 -10 -32.5 -15t-35.5 -5q-29 0 -53.5 13t-30.5 58l-47 353h-530l-195 -375q-16 -29 -41.5 -39t-48.5 -10q-25 0 -49.5 7t-34.5 17zM434 541h449l-99 673zM553 1461q37 90 81 139t103 49 q35 0 65 -19.5t55.5 -42t49 -42t45.5 -19.5q23 0 36.5 17.5t25.5 38t25.5 38t35.5 17.5q40 0 58 -31q-37 -98 -82 -143t-99 -45q-37 0 -69.5 18.5t-59 41t-50 40.5t-42.5 18q-23 0 -36 -16t-24 -36.5t-24.5 -37t-38.5 -16.5q-16 0 -31.5 9t-23.5 22z" />
<glyph unicode="&#xc4;" horiz-adv-x="1153" d="M2 14l688 1299q16 12 44 19t52 7q59 0 86 -21.5t33 -62.5l195 -1245q-14 -10 -32.5 -15t-35.5 -5q-29 0 -53.5 13t-30.5 58l-47 353h-530l-195 -375q-16 -29 -41.5 -39t-48.5 -10q-25 0 -49.5 7t-34.5 17zM434 541h449l-99 673zM589 1522q0 39 25 67.5t66 28.5 q35 0 56 -25.5t21 -60.5q0 -39 -24.5 -65.5t-65.5 -26.5q-35 0 -56.5 23.5t-21.5 58.5zM919 1522q0 39 24.5 67.5t65.5 28.5q35 0 56.5 -25.5t21.5 -60.5q0 -39 -24.5 -65.5t-65.5 -26.5q-35 0 -56.5 23.5t-21.5 58.5z" />
<glyph unicode="&#xc5;" horiz-adv-x="1153" d="M2 14l688 1299q16 12 44 19t52 7q59 0 86 -21.5t33 -62.5l195 -1245q-14 -10 -32.5 -15t-35.5 -5q-29 0 -53.5 13t-30.5 58l-47 353h-530l-195 -375q-16 -29 -41.5 -39t-48.5 -10q-25 0 -49.5 7t-34.5 17zM434 541h449l-99 673zM662 1577q0 45 17.5 86t48 71.5t70.5 48 t83 17.5q78 0 126 -47t48 -127q0 -41 -15.5 -81t-44 -71.5t-69.5 -52t-92 -20.5q-74 0 -123 49t-49 127zM750 1577q0 -43 23.5 -69.5t64.5 -26.5q53 0 91 43t38 102q0 41 -24.5 67.5t-63.5 26.5q-49 0 -89 -42t-40 -101z" />
<glyph unicode="&#xc6;" horiz-adv-x="1568" d="M27 8l776 1323h876q4 -16 4 -39q0 -41 -16 -63.5t-51 -24.5h-610l32 -450h508q4 -16 4 -39q0 -41 -16 -63.5t-53 -22.5h-434l36 -502h418q4 -16 4 -41q0 -41 -16 -63.5t-53 -22.5h-400q-29 0 -53.5 10t-28.5 51l-24 345h-516l-205 -355q-23 -39 -51.5 -50t-57.5 -11 q-45 0 -73 18zM487 535h435l-48 663z" />
<glyph unicode="&#xc7;" horiz-adv-x="1110" d="M152 539q0 160 60 305t161.5 254.5t234.5 174t281 64.5q100 0 188 -27.5t154 -64.5q0 -68 -23.5 -89t-52.5 -21q-20 0 -42.5 11t-55.5 23.5t-78 23.5t-111 11q-113 0 -215 -51t-181 -140t-126 -209t-47 -259q0 -199 98.5 -319t284.5 -120q63 0 112.5 10.5t85 23 t61.5 22.5t42 10q27 0 48.5 -25.5t6.5 -91.5q-84 -35 -175 -57.5t-189 -22.5q-131 0 -228.5 44t-163 120t-98 178.5t-32.5 221.5zM367 -375q0 66 49 66q29 0 55.5 -14.5t77.5 -14.5q47 0 84 24.5t47 71.5q4 33 -16.5 59.5t-81.5 26.5h-23q-25 0 -35 8.5t-10 22.5t11 37 l43 88h88l-41 -78q53 -4 85.5 -21.5t49 -42t20.5 -53t0 -55.5q-8 -45 -30.5 -77.5t-54 -54t-69.5 -32t-75 -10.5q-57 0 -100 15.5t-74 33.5z" />
<glyph unicode="&#xc8;" horiz-adv-x="993" d="M156 57l223 1217q4 25 18.5 41t53.5 16h655q4 -16 4 -39q0 -41 -16.5 -63.5t-53.5 -22.5h-534l-88 -479h524q4 -16 4 -39q0 -41 -16.5 -63.5t-52.5 -22.5h-482l-90 -477h592q4 -16 4 -39q0 -41 -16.5 -63.5t-53.5 -22.5h-626q-37 0 -45 16.5t-4 40.5zM613 1634 q0 63 77 93l236 -289q-16 -16 -36.5 -25.5t-45.5 -9.5q-18 0 -38.5 8t-39.5 27l-112 112q-41 41 -41 84z" />
<glyph unicode="&#xc9;" horiz-adv-x="993" d="M156 57l223 1217q4 25 18.5 41t53.5 16h655q4 -16 4 -39q0 -41 -16.5 -63.5t-53.5 -22.5h-534l-88 -479h524q4 -16 4 -39q0 -41 -16.5 -63.5t-52.5 -22.5h-482l-90 -477h592q4 -16 4 -39q0 -41 -16.5 -63.5t-53.5 -22.5h-626q-37 0 -45 16.5t-4 40.5zM631 1438l322 301 q31 -14 48 -34.5t17 -47.5t-9 -46.5t-34 -37.5l-180 -135q-53 -35 -90 -35q-45 0 -74 35z" />
<glyph unicode="&#xca;" horiz-adv-x="993" d="M156 57l223 1217q4 25 18.5 41t53.5 16h655q4 -16 4 -39q0 -41 -16.5 -63.5t-53.5 -22.5h-534l-88 -479h524q4 -16 4 -39q0 -41 -16.5 -63.5t-52.5 -22.5h-482l-90 -477h592q4 -16 4 -39q0 -41 -16.5 -63.5t-53.5 -22.5h-626q-37 0 -45 16.5t-4 40.5zM512 1444l227 258 q33 18 66 18q35 0 53.5 -13t30.5 -36l129 -240q-27 -20 -55 -20q-37 0 -54.5 16.5t-25.5 32.5l-82 166l-150 -180q-16 -20 -31.5 -27.5t-35.5 -7.5q-23 0 -42.5 11t-29.5 22z" />
<glyph unicode="&#xcb;" horiz-adv-x="993" d="M156 57l223 1217q4 25 18.5 41t53.5 16h655q4 -16 4 -39q0 -41 -16.5 -63.5t-53.5 -22.5h-534l-88 -479h524q4 -16 4 -39q0 -41 -16.5 -63.5t-52.5 -22.5h-482l-90 -477h592q4 -16 4 -39q0 -41 -16.5 -63.5t-53.5 -22.5h-626q-37 0 -45 16.5t-4 40.5zM546 1526 q0 39 25 67.5t66 28.5q35 0 56 -25.5t21 -60.5q0 -39 -24.5 -65.5t-65.5 -26.5q-35 0 -56.5 23.5t-21.5 58.5zM876 1526q0 39 24.5 67.5t65.5 28.5q35 0 56.5 -25.5t21.5 -60.5q0 -39 -24.5 -65.5t-65.5 -26.5q-35 0 -56.5 23.5t-21.5 58.5z" />
<glyph unicode="&#xcc;" horiz-adv-x="487" d="M154 4l235 1272q12 59 76 59q16 0 34.5 -5t32.5 -11l-233 -1274q-12 -57 -78 -57q-16 0 -34.5 5t-32.5 11zM316 1632q0 63 77 93l236 -289q-16 -16 -36.5 -25.5t-45.5 -9.5q-18 0 -38.5 8t-39.5 27l-112 112q-41 41 -41 84z" />
<glyph unicode="&#xcd;" horiz-adv-x="487" d="M154 4l235 1272q12 59 76 59q16 0 34.5 -5t32.5 -11l-233 -1274q-12 -57 -78 -57q-16 0 -34.5 5t-32.5 11zM368 1436l322 301q31 -14 48 -34.5t17 -47.5t-9 -46.5t-34 -37.5l-180 -135q-53 -35 -90 -35q-45 0 -74 35z" />
<glyph unicode="&#xce;" horiz-adv-x="487" d="M154 4l235 1272q12 59 76 59q16 0 34.5 -5t32.5 -11l-233 -1274q-12 -57 -78 -57q-16 0 -34.5 5t-32.5 11zM237 1444l227 258q33 18 66 18q35 0 53.5 -13t30.5 -36l129 -240q-27 -20 -55 -20q-37 0 -54.5 16.5t-25.5 32.5l-82 166l-150 -180q-16 -20 -31.5 -27.5 t-35.5 -7.5q-23 0 -42.5 11t-29.5 22z" />
<glyph unicode="&#xcf;" horiz-adv-x="487" d="M154 4l235 1272q12 59 76 59q16 0 34.5 -5t32.5 -11l-233 -1274q-12 -57 -78 -57q-16 0 -34.5 5t-32.5 11zM260 1528q0 39 25 67.5t66 28.5q35 0 56 -25.5t21 -60.5q0 -39 -24.5 -65.5t-65.5 -26.5q-35 0 -56.5 23.5t-21.5 58.5zM590 1528q0 39 24.5 67.5t65.5 28.5 q35 0 56.5 -25.5t21.5 -60.5q0 -39 -24.5 -65.5t-65.5 -26.5q-35 0 -56.5 23.5t-21.5 58.5z" />
<glyph unicode="&#xd0;" horiz-adv-x="1312" d="M121 662q0 39 19.5 57t47.5 18h121l99 537q6 25 19 41t52 16h291q133 0 237.5 -35.5t175 -103.5t107.5 -163t37 -214q0 -164 -56.5 -312.5t-161.5 -260t-256 -177t-339 -65.5h-281q-33 0 -42 11.5t-9 23.5q0 10 2 22l101 553h-154q-10 25 -10 52zM334 125h162 q154 0 280.5 47t217.5 136t140.5 217t49.5 290q0 96 -31 169t-86 122t-132 74.5t-169 25.5h-229l-88 -469h290q10 -25 11 -51q0 -39 -19.5 -57.5t-48.5 -18.5h-258z" />
<glyph unicode="&#xd1;" horiz-adv-x="1325" d="M154 6l245 1315q39 14 80 14t68.5 -16t44.5 -57l438 -1059l199 1075q10 57 76 57q16 0 33.5 -5t31.5 -11l-240 -1305q-18 -10 -40.5 -15t-36.5 -5q-47 0 -68.5 19.5t-34.5 47.5l-452 1078l-199 -1096q-4 -29 -25.5 -41t-54.5 -12q-16 0 -33.5 5t-31.5 11zM635 1465 q37 90 81 139t103 49q35 0 65 -19.5t55.5 -42t49 -42t45.5 -19.5q23 0 36.5 17.5t25.5 38t25.5 38t35.5 17.5q40 0 58 -31q-37 -98 -82 -143t-99 -45q-37 0 -69.5 18.5t-59 41t-50 40.5t-42.5 18q-23 0 -36 -16t-24 -36.5t-24.5 -37t-38.5 -16.5q-16 0 -31.5 9t-23.5 22z " />
<glyph unicode="&#xd2;" horiz-adv-x="1374" d="M158 543q0 160 58 307t158.5 259t232 178.5t278.5 66.5q113 0 206 -44t157.5 -119t100 -177.5t35.5 -218.5q0 -168 -59 -316.5t-158.5 -260.5t-229.5 -176.5t-269 -64.5q-119 0 -213.5 44.5t-161 121t-101 179t-34.5 221.5zM305 545q0 -98 24.5 -180t72 -140.5t116 -90.5 t154.5 -32q109 0 210 54.5t180 148.5t126 218t47 263q0 98 -24.5 180.5t-71.5 140.5t-116 90t-155 32q-109 0 -211 -54.5t-180 -148.5t-125 -218t-47 -263zM744 1634q0 63 77 93l236 -289q-16 -16 -36.5 -25.5t-45.5 -9.5q-18 0 -38.5 8t-39.5 27l-112 112q-41 41 -41 84z " />
<glyph unicode="&#xd3;" horiz-adv-x="1374" d="M158 543q0 160 58 307t158.5 259t232 178.5t278.5 66.5q113 0 206 -44t157.5 -119t100 -177.5t35.5 -218.5q0 -168 -59 -316.5t-158.5 -260.5t-229.5 -176.5t-269 -64.5q-119 0 -213.5 44.5t-161 121t-101 179t-34.5 221.5zM305 545q0 -98 24.5 -180t72 -140.5t116 -90.5 t154.5 -32q109 0 210 54.5t180 148.5t126 218t47 263q0 98 -24.5 180.5t-71.5 140.5t-116 90t-155 32q-109 0 -211 -54.5t-180 -148.5t-125 -218t-47 -263zM719 1438l322 301q31 -14 48 -34.5t17 -47.5t-9 -46.5t-34 -37.5l-180 -135q-53 -35 -90 -35q-45 0 -74 35z" />
<glyph unicode="&#xd4;" horiz-adv-x="1374" d="M158 543q0 160 58 307t158.5 259t232 178.5t278.5 66.5q113 0 206 -44t157.5 -119t100 -177.5t35.5 -218.5q0 -168 -59 -316.5t-158.5 -260.5t-229.5 -176.5t-269 -64.5q-119 0 -213.5 44.5t-161 121t-101 179t-34.5 221.5zM305 545q0 -98 24.5 -180t72 -140.5t116 -90.5 t154.5 -32q109 0 210 54.5t180 148.5t126 218t47 263q0 98 -24.5 180.5t-71.5 140.5t-116 90t-155 32q-109 0 -211 -54.5t-180 -148.5t-125 -218t-47 -263zM653 1444l227 258q33 18 66 18q35 0 53.5 -13t30.5 -36l129 -240q-27 -20 -55 -20q-37 0 -54.5 16.5t-25.5 32.5 l-82 166l-150 -180q-16 -20 -31.5 -27.5t-35.5 -7.5q-23 0 -42.5 11t-29.5 22z" />
<glyph unicode="&#xd5;" horiz-adv-x="1374" d="M158 543q0 160 58 307t158.5 259t232 178.5t278.5 66.5q113 0 206 -44t157.5 -119t100 -177.5t35.5 -218.5q0 -168 -59 -316.5t-158.5 -260.5t-229.5 -176.5t-269 -64.5q-119 0 -213.5 44.5t-161 121t-101 179t-34.5 221.5zM305 545q0 -98 24.5 -180t72 -140.5t116 -90.5 t154.5 -32q109 0 210 54.5t180 148.5t126 218t47 263q0 98 -24.5 180.5t-71.5 140.5t-116 90t-155 32q-109 0 -211 -54.5t-180 -148.5t-125 -218t-47 -263zM637 1465q37 90 81 139t103 49q35 0 65 -19.5t55.5 -42t49 -42t45.5 -19.5q23 0 36.5 17.5t25.5 38t25.5 38 t35.5 17.5q40 0 58 -31q-37 -98 -82 -143t-99 -45q-37 0 -69.5 18.5t-59 41t-50 40.5t-42.5 18q-23 0 -36 -16t-24 -36.5t-24.5 -37t-38.5 -16.5q-16 0 -31.5 9t-23.5 22z" />
<glyph unicode="&#xd6;" horiz-adv-x="1374" d="M158 543q0 160 58 307t158.5 259t232 178.5t278.5 66.5q113 0 206 -44t157.5 -119t100 -177.5t35.5 -218.5q0 -168 -59 -316.5t-158.5 -260.5t-229.5 -176.5t-269 -64.5q-119 0 -213.5 44.5t-161 121t-101 179t-34.5 221.5zM305 545q0 -98 24.5 -180t72 -140.5t116 -90.5 t154.5 -32q109 0 210 54.5t180 148.5t126 218t47 263q0 98 -24.5 180.5t-71.5 140.5t-116 90t-155 32q-109 0 -211 -54.5t-180 -148.5t-125 -218t-47 -263zM675 1528q0 39 25 67.5t66 28.5q35 0 56 -25.5t21 -60.5q0 -39 -24.5 -65.5t-65.5 -26.5q-35 0 -56.5 23.5 t-21.5 58.5zM1005 1528q0 39 24.5 67.5t65.5 28.5q35 0 56.5 -25.5t21.5 -60.5q0 -39 -24.5 -65.5t-65.5 -26.5q-35 0 -56.5 23.5t-21.5 58.5z" />
<glyph unicode="&#xd7;" d="M219 152l352 352l-319 317q-16 18 -16 37q0 20 28 47q12 12 24.5 21.5t22.5 13.5l351 -346l317 319q18 18 37 19q20 0 47 -31q12 -12 21.5 -24.5t13.5 -22.5l-346 -350l315 -320q18 -18 18 -34q0 -20 -30 -50q-12 -12 -24.5 -21t-22.5 -13l-346 348l-322 -322 q-16 -16 -33 -16q-25 0 -51 28q-14 12 -22.5 24.5t-14.5 23.5z" />
<glyph unicode="&#xd8;" horiz-adv-x="1390" d="M152 532q0 160 58 308.5t157.5 262.5t232.5 182.5t283 68.5q158 0 270 -78l64 86q16 23 34.5 30t34.5 7q23 0 41.5 -15.5t24.5 -37.5l-109 -146q66 -74 101.5 -175t35.5 -220q0 -168 -58 -318.5t-158.5 -263t-232.5 -179.5t-282 -67q-145 0 -260 70l-51 -70 q-16 -23 -34.5 -29.5t-35.5 -6.5q-23 0 -41 15t-24 38l94 127q-72 76 -108.5 181.5t-36.5 229.5zM297 530q0 -182 84 -294l692 933q-41 29 -92 44.5t-111 15.5q-113 0 -216 -58.5t-183 -155.5t-127 -223.5t-47 -261.5zM469 154q84 -51 190 -52q113 0 217.5 55.5t184.5 149.5 t128 221.5t48 272.5q0 168 -80 282z" />
<glyph unicode="&#xd9;" horiz-adv-x="1290" d="M207 397q0 27 3 53.5t7 55.5l143 770q10 59 76 59q16 0 34.5 -5t33.5 -11l-148 -815q-4 -27 -7 -51.5t-3 -49.5q0 -129 74 -214t231 -85q178 0 285.5 101.5t142.5 292.5l144 778q10 59 75 59q16 0 35 -5t33 -11l-158 -852q-18 -102 -64 -192.5t-117 -157t-167 -104.5 t-215 -38q-111 0 -192.5 34t-136 91.5t-82 134t-27.5 162.5zM740 1634q0 63 77 93l236 -289q-16 -16 -36.5 -25.5t-45.5 -9.5q-18 0 -38.5 8t-39.5 27l-112 112q-41 41 -41 84z" />
<glyph unicode="&#xda;" horiz-adv-x="1290" d="M207 397q0 27 3 53.5t7 55.5l143 770q10 59 76 59q16 0 34.5 -5t33.5 -11l-148 -815q-4 -27 -7 -51.5t-3 -49.5q0 -129 74 -214t231 -85q178 0 285.5 101.5t142.5 292.5l144 778q10 59 75 59q16 0 35 -5t33 -11l-158 -852q-18 -102 -64 -192.5t-117 -157t-167 -104.5 t-215 -38q-111 0 -192.5 34t-136 91.5t-82 134t-27.5 162.5zM778 1438l322 301q31 -14 48 -34.5t17 -47.5t-9 -46.5t-34 -37.5l-180 -135q-53 -35 -90 -35q-45 0 -74 35z" />
<glyph unicode="&#xdb;" horiz-adv-x="1290" d="M207 397q0 27 3 53.5t7 55.5l143 770q10 59 76 59q16 0 34.5 -5t33.5 -11l-148 -815q-4 -27 -7 -51.5t-3 -49.5q0 -129 74 -214t231 -85q178 0 285.5 101.5t142.5 292.5l144 778q10 59 75 59q16 0 35 -5t33 -11l-158 -852q-18 -102 -64 -192.5t-117 -157t-167 -104.5 t-215 -38q-111 0 -192.5 34t-136 91.5t-82 134t-27.5 162.5zM645 1444l227 258q33 18 66 18q35 0 53.5 -13t30.5 -36l129 -240q-27 -20 -55 -20q-37 0 -54.5 16.5t-25.5 32.5l-82 166l-150 -180q-16 -20 -31.5 -27.5t-35.5 -7.5q-23 0 -42.5 11t-29.5 22z" />
<glyph unicode="&#xdc;" horiz-adv-x="1290" d="M207 397q0 27 3 53.5t7 55.5l143 770q10 59 76 59q16 0 34.5 -5t33.5 -11l-148 -815q-4 -27 -7 -51.5t-3 -49.5q0 -129 74 -214t231 -85q178 0 285.5 101.5t142.5 292.5l144 778q10 59 75 59q16 0 35 -5t33 -11l-158 -852q-18 -102 -64 -192.5t-117 -157t-167 -104.5 t-215 -38q-111 0 -192.5 34t-136 91.5t-82 134t-27.5 162.5zM688 1526q0 39 25 67.5t66 28.5q35 0 56 -25.5t21 -60.5q0 -39 -24.5 -65.5t-65.5 -26.5q-35 0 -56.5 23.5t-21.5 58.5zM1018 1526q0 39 24.5 67.5t65.5 28.5q35 0 56.5 -25.5t21.5 -60.5q0 -39 -24.5 -65.5 t-65.5 -26.5q-35 0 -56.5 23.5t-21.5 58.5z" />
<glyph unicode="&#xdd;" horiz-adv-x="1069" d="M236 1311q10 10 30.5 17t42.5 7q27 0 48.5 -9t33.5 -38l246 -610l461 616q23 27 42 36t48 9t52.5 -9t35.5 -17l-588 -762l-94 -506q-8 -57 -78 -57q-16 0 -34.5 5t-32.5 11l104 555zM698 1438l322 301q31 -14 48 -34.5t17 -47.5t-9 -46.5t-34 -37.5l-180 -135 q-53 -35 -90 -35q-45 0 -74 35z" />
<glyph unicode="&#xde;" horiz-adv-x="1054" d="M154 -4l237 1284q4 25 23.5 40t58.5 15q16 0 34.5 -2t24.5 -6l-36 -209h225q197 0 296 -96t99 -246q0 -111 -41 -207t-113.5 -165.5t-174 -109.5t-220.5 -40h-231l-39 -211q-4 -25 -24.5 -40t-57.5 -15q-18 0 -34.5 2t-26.5 6zM358 379h213q90 0 165 25.5t128.5 73.5 t83 118t29.5 156q0 113 -73 176t-214 63h-217z" />
<glyph unicode="&#xdf;" horiz-adv-x="1171" d="M131 4l197 1063q16 90 57 155.5t99.5 108.5t128 63.5t145.5 20.5q92 0 158.5 -24.5t108.5 -66.5t61.5 -98.5t19.5 -117.5q0 -55 -19.5 -115.5t-52.5 -103.5q-123 -4 -186.5 -45t-63.5 -125q0 -47 27 -79t67 -55.5t86 -45t86 -52t66.5 -74.5t26.5 -112q0 -61 -24.5 -118.5 t-74 -100.5t-121 -69.5t-161.5 -26.5q-104 0 -183 22.5t-143 57.5q-2 45 12.5 70.5t43.5 25.5q23 0 46 -9.5t53 -21.5t70.5 -21.5t100.5 -9.5q113 0 180.5 56.5t67.5 134.5q0 43 -27 73.5t-66.5 55t-87 48.5t-87.5 56.5t-66.5 78.5t-24.5 116q0 109 81 182.5t229 91.5 q25 63 24 121q-2 78 -57.5 130t-173.5 52q-129 0 -202 -65.5t-101 -212.5l-179 -973q-10 -57 -73 -57q-16 0 -35 5t-33 11z" />
<glyph unicode="&#xe0;" horiz-adv-x="1058" d="M141 348q0 143 55.5 261t141.5 202t191.5 131t207.5 47q88 0 169 -29.5t141 -95.5l-72 -370q-18 -94 -29.5 -174t-9.5 -148q0 -47 5 -89t20 -77q-27 -16 -68 -16q-47 0 -63.5 46t-16.5 107q0 16 1 35t3 37h-4q-66 -117 -154 -176t-198 -59q-63 0 -121.5 24.5t-102.5 71.5 t-70 115.5t-26 156.5zM279 340q0 -47 12 -91t35.5 -78t59.5 -53.5t83 -19.5q63 0 123.5 32t113 88t90.5 135t56 173l53 287q-20 18 -63 37.5t-109 19.5q-82 0 -163 -38.5t-145.5 -109.5t-105 -168t-40.5 -214zM494 1339q0 63 77 93l236 -289q-16 -16 -36.5 -25.5t-45.5 -9.5 q-18 0 -38.5 8t-39.5 27l-112 112q-41 41 -41 84z" />
<glyph unicode="&#xe1;" horiz-adv-x="1058" d="M141 348q0 143 55.5 261t141.5 202t191.5 131t207.5 47q88 0 169 -29.5t141 -95.5l-72 -370q-18 -94 -29.5 -174t-9.5 -148q0 -47 5 -89t20 -77q-27 -16 -68 -16q-47 0 -63.5 46t-16.5 107q0 16 1 35t3 37h-4q-66 -117 -154 -176t-198 -59q-63 0 -121.5 24.5t-102.5 71.5 t-70 115.5t-26 156.5zM279 340q0 -47 12 -91t35.5 -78t59.5 -53.5t83 -19.5q63 0 123.5 32t113 88t90.5 135t56 173l53 287q-20 18 -63 37.5t-109 19.5q-82 0 -163 -38.5t-145.5 -109.5t-105 -168t-40.5 -214zM639 1143l322 301q31 -14 48 -34.5t17 -47.5t-9 -46.5 t-34 -37.5l-180 -135q-53 -35 -90 -35q-45 0 -74 35z" />
<glyph unicode="&#xe2;" horiz-adv-x="1058" d="M141 348q0 143 55.5 261t141.5 202t191.5 131t207.5 47q88 0 169 -29.5t141 -95.5l-72 -370q-18 -94 -29.5 -174t-9.5 -148q0 -47 5 -89t20 -77q-27 -16 -68 -16q-47 0 -63.5 46t-16.5 107q0 16 1 35t3 37h-4q-66 -117 -154 -176t-198 -59q-63 0 -121.5 24.5t-102.5 71.5 t-70 115.5t-26 156.5zM279 340q0 -47 12 -91t35.5 -78t59.5 -53.5t83 -19.5q63 0 123.5 32t113 88t90.5 135t56 173l53 287q-20 18 -63 37.5t-109 19.5q-82 0 -163 -38.5t-145.5 -109.5t-105 -168t-40.5 -214zM475 1141l227 258q33 18 66 18q35 0 53.5 -13t30.5 -36 l129 -240q-27 -20 -55 -20q-37 0 -54.5 16.5t-25.5 32.5l-82 166l-150 -180q-16 -20 -31.5 -27.5t-35.5 -7.5q-23 0 -42.5 11t-29.5 22z" />
<glyph unicode="&#xe3;" horiz-adv-x="1058" d="M141 348q0 143 55.5 261t141.5 202t191.5 131t207.5 47q88 0 169 -29.5t141 -95.5l-72 -370q-18 -94 -29.5 -174t-9.5 -148q0 -47 5 -89t20 -77q-27 -16 -68 -16q-47 0 -63.5 46t-16.5 107q0 16 1 35t3 37h-4q-66 -117 -154 -176t-198 -59q-63 0 -121.5 24.5t-102.5 71.5 t-70 115.5t-26 156.5zM279 340q0 -47 12 -91t35.5 -78t59.5 -53.5t83 -19.5q63 0 123.5 32t113 88t90.5 135t56 173l53 287q-20 18 -63 37.5t-109 19.5q-82 0 -163 -38.5t-145.5 -109.5t-105 -168t-40.5 -214zM457 1180q37 90 81 139t103 49q35 0 65 -19.5t55.5 -42t49 -42 t45.5 -19.5q23 0 36.5 17.5t25.5 38t25.5 38t35.5 17.5q40 0 58 -31q-37 -98 -82 -143t-99 -45q-37 0 -69.5 18.5t-59 41t-50 40.5t-42.5 18q-23 0 -36 -16t-24 -36.5t-24.5 -37t-38.5 -16.5q-16 0 -31.5 9t-23.5 22z" />
<glyph unicode="&#xe4;" horiz-adv-x="1058" d="M141 348q0 143 55.5 261t141.5 202t191.5 131t207.5 47q88 0 169 -29.5t141 -95.5l-72 -370q-18 -94 -29.5 -174t-9.5 -148q0 -47 5 -89t20 -77q-27 -16 -68 -16q-47 0 -63.5 46t-16.5 107q0 16 1 35t3 37h-4q-66 -117 -154 -176t-198 -59q-63 0 -121.5 24.5t-102.5 71.5 t-70 115.5t-26 156.5zM279 340q0 -47 12 -91t35.5 -78t59.5 -53.5t83 -19.5q63 0 123.5 32t113 88t90.5 135t56 173l53 287q-20 18 -63 37.5t-109 19.5q-82 0 -163 -38.5t-145.5 -109.5t-105 -168t-40.5 -214zM497 1239q0 39 25 67.5t66 28.5q35 0 56 -25.5t21 -60.5 q0 -39 -24.5 -65.5t-65.5 -26.5q-35 0 -56.5 23.5t-21.5 58.5zM827 1239q0 39 24.5 67.5t65.5 28.5q35 0 56.5 -25.5t21.5 -60.5q0 -39 -24.5 -65.5t-65.5 -26.5q-35 0 -56.5 23.5t-21.5 58.5z" />
<glyph unicode="&#xe5;" horiz-adv-x="1058" d="M141 348q0 143 55.5 261t141.5 202t191.5 131t207.5 47q88 0 169 -29.5t141 -95.5l-72 -370q-18 -94 -29.5 -174t-9.5 -148q0 -47 5 -89t20 -77q-27 -16 -68 -16q-47 0 -63.5 46t-16.5 107q0 16 1 35t3 37h-4q-66 -117 -154 -176t-198 -59q-63 0 -121.5 24.5t-102.5 71.5 t-70 115.5t-26 156.5zM279 340q0 -47 12 -91t35.5 -78t59.5 -53.5t83 -19.5q63 0 123.5 32t113 88t90.5 135t56 173l53 287q-20 18 -63 37.5t-109 19.5q-82 0 -163 -38.5t-145.5 -109.5t-105 -168t-40.5 -214zM600 1229q0 45 17.5 86t48 71.5t70.5 48t83 17.5q78 0 126 -47 t48 -127q0 -41 -15.5 -81t-44 -71.5t-69.5 -52t-92 -20.5q-74 0 -123 49t-49 127zM688 1229q0 -43 23.5 -69.5t64.5 -26.5q53 0 91 43t38 102q0 41 -24.5 67.5t-63.5 26.5q-49 0 -89 -42t-40 -101z" />
<glyph unicode="&#xe6;" horiz-adv-x="1439" d="M117 219q0 90 48 153.5t132 103.5t197.5 57.5t246.5 17.5l13 82q6 45 1 88t-25.5 76.5t-58.5 54t-98 20.5q-59 0 -101 -10t-72.5 -21.5t-54 -21.5t-46.5 -10t-40 16.5t-17 44.5q0 20 8 45q49 25 136 51.5t192 26.5q133 0 203.5 -64.5t78.5 -152.5h2q29 51 71 92t91 69 t101.5 43t101.5 15q68 0 117 -19.5t80.5 -51t46 -70.5t14.5 -78q0 -170 -149.5 -254t-483.5 -86q-4 -20 -4 -43.5v-46.5q8 -119 70.5 -182.5t177.5 -63.5q47 0 82.5 9.5t63.5 20.5t49.5 20.5t41.5 9.5q25 0 42.5 -16.5t17.5 -47.5v-20t-4 -23q-59 -29 -134 -52.5t-188 -23.5 q-117 0 -198 55.5t-117 151.5h-4q-61 -88 -149.5 -145t-217.5 -57q-66 0 -115 19t-81.5 51t-50 75t-17.5 92zM256 231q0 -59 43 -95t109 -36q86 0 171 59.5t144 159.5q-2 29 -2 62q0 30 6 59q-233 0 -352 -51t-119 -158zM872 545q113 2 202 13t150.5 37t94.5 68t33 103 q0 47 -36 75.5t-93 28.5q-47 0 -98.5 -18t-99.5 -57t-89 -101.5t-64 -148.5z" />
<glyph unicode="&#xe7;" horiz-adv-x="894" d="M141 395q0 121 43 229.5t118 189.5t174 128t210 47q41 0 81 -7t75 -19.5t63.5 -27.5t46.5 -30q0 -47 -18.5 -73.5t-44.5 -26.5q-16 0 -35.5 9t-45.5 20.5t-62.5 20.5t-90.5 9q-68 0 -135 -31.5t-121.5 -91t-89.5 -145.5t-35 -197q0 -72 21.5 -126t58.5 -91t86 -56.5 t105 -19.5q51 0 90 9.5t68.5 19.5t53 19.5t44.5 9.5q51 0 51 -60q0 -18 -6 -43q-63 -35 -136 -56t-178 -21q-92 0 -164.5 31.5t-122.5 88t-77 131t-27 160.5zM242 -375q0 66 49 66q29 0 55.5 -14.5t77.5 -14.5q47 0 84 24.5t47 71.5q4 33 -16.5 59.5t-81.5 26.5h-23 q-25 0 -35 8.5t-10 22.5t11 37l43 88h88l-41 -78q53 -4 85.5 -21.5t49 -42t20.5 -53t0 -55.5q-8 -45 -30.5 -77.5t-54 -54t-69.5 -32t-75 -10.5q-57 0 -100 15.5t-74 33.5z" />
<glyph unicode="&#xe8;" horiz-adv-x="935" d="M145 385q0 137 49.5 250t128 192.5t177 123.5t198.5 44q74 0 126.5 -19.5t84 -52t47 -72.5t15.5 -79q0 -80 -46 -150.5t-134.5 -121.5t-216.5 -81t-289 -30v-14q0 -125 72.5 -200t211.5 -75q55 0 94 9.5t68 19.5t49.5 19.5t40.5 9.5q23 0 40.5 -16.5t17.5 -51.5 q0 -8 -1.5 -15.5l-3.5 -17.5q-59 -33 -144 -56.5t-177 -23.5q-100 0 -177 32t-128 87.5t-77 130t-26 158.5zM289 494q150 0 253 24.5t167.5 62t93 85t28.5 92.5q0 55 -37.5 90t-111.5 35q-63 0 -128 -29t-118 -80t-93 -122.5t-54 -157.5zM576 1339q0 63 77 93l236 -289 q-16 -16 -36.5 -25.5t-45.5 -9.5q-18 0 -38.5 8t-39.5 27l-112 112q-41 41 -41 84z" />
<glyph unicode="&#xe9;" horiz-adv-x="935" d="M145 385q0 137 49.5 250t128 192.5t177 123.5t198.5 44q74 0 126.5 -19.5t84 -52t47 -72.5t15.5 -79q0 -80 -46 -150.5t-134.5 -121.5t-216.5 -81t-289 -30v-14q0 -125 72.5 -200t211.5 -75q55 0 94 9.5t68 19.5t49.5 19.5t40.5 9.5q23 0 40.5 -16.5t17.5 -51.5 q0 -8 -1.5 -15.5l-3.5 -17.5q-59 -33 -144 -56.5t-177 -23.5q-100 0 -177 32t-128 87.5t-77 130t-26 158.5zM289 494q150 0 253 24.5t167.5 62t93 85t28.5 92.5q0 55 -37.5 90t-111.5 35q-63 0 -128 -29t-118 -80t-93 -122.5t-54 -157.5zM602 1143l322 301q31 -14 48 -34.5 t17 -47.5t-9 -46.5t-34 -37.5l-180 -135q-53 -35 -90 -35q-45 0 -74 35z" />
<glyph unicode="&#xea;" horiz-adv-x="935" d="M161 385q0 137 49.5 250t128 192.5t177 123.5t198.5 44q74 0 126.5 -19.5t84 -52t47 -72.5t15.5 -79q0 -80 -46 -150.5t-134.5 -121.5t-216.5 -81t-289 -30v-14q0 -125 72.5 -200t211.5 -75q55 0 94 9.5t68 19.5t49.5 19.5t40.5 9.5q23 0 40.5 -16.5t17.5 -51.5 q0 -8 -1.5 -15.5l-3.5 -17.5q-59 -33 -144 -56.5t-177 -23.5q-100 0 -177 32t-128 87.5t-77 130t-26 158.5zM305 494q150 0 253 24.5t167.5 62t93 85t28.5 92.5q0 55 -37.5 90t-111.5 35q-63 0 -128 -29t-118 -80t-93 -122.5t-54 -157.5zM430 1141l227 258q33 18 66 18 q35 0 53.5 -13t30.5 -36l129 -240q-27 -20 -55 -20q-37 0 -54.5 16.5t-25.5 32.5l-82 166l-150 -180q-16 -20 -31.5 -27.5t-35.5 -7.5q-23 0 -42.5 11t-29.5 22z" />
<glyph unicode="&#xeb;" horiz-adv-x="935" d="M145 385q0 137 49.5 250t128 192.5t177 123.5t198.5 44q74 0 126.5 -19.5t84 -52t47 -72.5t15.5 -79q0 -80 -46 -150.5t-134.5 -121.5t-216.5 -81t-289 -30v-14q0 -125 72.5 -200t211.5 -75q55 0 94 9.5t68 19.5t49.5 19.5t40.5 9.5q23 0 40.5 -16.5t17.5 -51.5 q0 -8 -1.5 -15.5l-3.5 -17.5q-59 -33 -144 -56.5t-177 -23.5q-100 0 -177 32t-128 87.5t-77 130t-26 158.5zM289 494q150 0 253 24.5t167.5 62t93 85t28.5 92.5q0 55 -37.5 90t-111.5 35q-63 0 -128 -29t-118 -80t-93 -122.5t-54 -157.5zM475 1239q0 39 25 67.5t66 28.5 q35 0 56 -25.5t21 -60.5q0 -39 -24.5 -65.5t-65.5 -26.5q-35 0 -56.5 23.5t-21.5 58.5zM805 1239q0 39 24.5 67.5t65.5 28.5q35 0 56.5 -25.5t21.5 -60.5q0 -39 -24.5 -65.5t-65.5 -26.5q-35 0 -56.5 23.5t-21.5 58.5z" />
<glyph unicode="&#xec;" horiz-adv-x="421" d="M131 4l168 916q10 57 74 57q16 0 34.5 -5t32.5 -11l-168 -916q-10 -57 -73 -57q-16 0 -35 5t-33 11zM217 1339q0 63 77 93l236 -289q-16 -16 -36.5 -25.5t-45.5 -9.5q-18 0 -38.5 8t-39.5 27l-112 112q-41 41 -41 84z" />
<glyph unicode="&#xed;" horiz-adv-x="421" d="M131 4l168 916q10 57 74 57q16 0 34.5 -5t32.5 -11l-168 -916q-10 -57 -73 -57q-16 0 -35 5t-33 11zM297 1143l322 301q31 -14 48 -34.5t17 -47.5t-9 -46.5t-34 -37.5l-180 -135q-53 -35 -90 -35q-45 0 -74 35z" />
<glyph unicode="&#xee;" horiz-adv-x="421" d="M131 4l168 916q10 57 74 57q16 0 34.5 -5t32.5 -11l-168 -916q-10 -57 -73 -57q-16 0 -35 5t-33 11zM147 1141l227 258q33 18 66 18q35 0 53.5 -13t30.5 -36l129 -240q-27 -20 -55 -20q-37 0 -54.5 16.5t-25.5 32.5l-82 166l-150 -180q-16 -20 -31.5 -27.5t-35.5 -7.5 q-23 0 -42.5 11t-29.5 22z" />
<glyph unicode="&#xef;" horiz-adv-x="421" d="M131 4l168 916q10 57 74 57q16 0 34.5 -5t32.5 -11l-168 -916q-10 -57 -73 -57q-16 0 -35 5t-33 11zM174 1239q0 39 25 67.5t66 28.5q35 0 56 -25.5t21 -60.5q0 -39 -24.5 -65.5t-65.5 -26.5q-35 0 -56.5 23.5t-21.5 58.5zM504 1239q0 39 24.5 67.5t65.5 28.5 q35 0 56.5 -25.5t21.5 -60.5q0 -39 -24.5 -65.5t-65.5 -26.5q-35 0 -56.5 23.5t-21.5 58.5z" />
<glyph unicode="&#xf0;" horiz-adv-x="1138" d="M141 401q0 115 38 216.5t105.5 178t159 122t195.5 45.5q49 0 96 -16.5t89 -46.5t76 -69.5t56 -85.5q0 117 -39.5 212.5t-101.5 172.5l-182 -90q-12 -6 -23 -6q-25 0 -35 26.5t-10 49.5v6l183 90q-12 12 -26.5 24.5t-29.5 24.5q-18 16 -31.5 32t-13.5 32q0 18 16.5 36.5 t51.5 30.5q41 -29 77.5 -59.5t69.5 -64.5l160 79q12 4 18 5q25 0 38.5 -20.5t13.5 -49.5v-8l-166 -82q78 -104 116.5 -220t38.5 -233q0 -170 -41 -308t-112.5 -236.5t-172 -152.5t-218.5 -54q-90 0 -164 31.5t-125 87t-79 132t-28 168.5zM270 403q0 -147 77 -226t190 -79 q90 0 160.5 38t121.5 104.5t81 154t36 185.5q-16 55 -46 104t-70 86t-89 58.5t-102 21.5q-55 0 -117.5 -26.5t-117 -81t-89.5 -138.5t-35 -201z" />
<glyph unicode="&#xf1;" horiz-adv-x="1075" d="M131 4l174 967q27 8 53 8q31 0 49.5 -15.5t18.5 -45.5q0 -8 -4 -29l-25 -111l2 -2q59 92 151.5 155.5t207.5 63.5q129 0 207.5 -78.5t78.5 -222.5q0 -25 -3 -49t-7 -53l-100 -547q-10 -57 -74 -57q-16 0 -34.5 5t-32.5 11l106 592q4 25 6 47.5t2 42.5q0 98 -47 144.5 t-127 46.5q-57 0 -118.5 -30t-115 -85t-95.5 -135t-60 -183l-72 -399q-10 -57 -73 -57q-16 0 -35 5t-33 11zM467 1180q37 90 81 139t103 49q35 0 65 -19.5t55.5 -42t49 -42t45.5 -19.5q23 0 36.5 17.5t25.5 38t25.5 38t35.5 17.5q40 0 58 -31q-37 -98 -82 -143t-99 -45 q-37 0 -69.5 18.5t-59 41t-50 40.5t-42.5 18q-23 0 -36 -16t-24 -36.5t-24.5 -37t-38.5 -16.5q-16 0 -31.5 9t-23.5 22z" />
<glyph unicode="&#xf2;" horiz-adv-x="1056" d="M141 387q0 119 42 228.5t116 193.5t174 135t217 51q86 0 154.5 -30.5t116 -85t72 -130t24.5 -163.5q0 -119 -40 -228.5t-111.5 -192.5t-171 -133t-216.5 -50q-86 0 -155.5 30.5t-118.5 85t-76 128t-27 161.5zM279 389q0 -74 20 -128t54 -91t79 -54.5t96 -17.5 q72 0 142.5 35t126 98.5t90.5 153.5t35 199q0 141 -67 218t-179 77q-72 0 -143.5 -37t-128 -101.5t-91 -154.5t-34.5 -197zM598 1339q0 63 77 93l236 -289q-16 -16 -36.5 -25.5t-45.5 -9.5q-18 0 -38.5 8t-39.5 27l-112 112q-41 41 -41 84z" />
<glyph unicode="&#xf3;" horiz-adv-x="1056" d="M141 387q0 119 42 228.5t116 193.5t174 135t217 51q86 0 154.5 -30.5t116 -85t72 -130t24.5 -163.5q0 -119 -40 -228.5t-111.5 -192.5t-171 -133t-216.5 -50q-86 0 -155.5 30.5t-118.5 85t-76 128t-27 161.5zM279 389q0 -74 20 -128t54 -91t79 -54.5t96 -17.5 q72 0 142.5 35t126 98.5t90.5 153.5t35 199q0 141 -67 218t-179 77q-72 0 -143.5 -37t-128 -101.5t-91 -154.5t-34.5 -197zM618 1143l322 301q31 -14 48 -34.5t17 -47.5t-9 -46.5t-34 -37.5l-180 -135q-53 -35 -90 -35q-45 0 -74 35z" />
<glyph unicode="&#xf4;" horiz-adv-x="1056" d="M141 387q0 119 42 228.5t116 193.5t174 135t217 51q86 0 154.5 -30.5t116 -85t72 -130t24.5 -163.5q0 -119 -40 -228.5t-111.5 -192.5t-171 -133t-216.5 -50q-86 0 -155.5 30.5t-118.5 85t-76 128t-27 161.5zM279 389q0 -74 20 -128t54 -91t79 -54.5t96 -17.5 q72 0 142.5 35t126 98.5t90.5 153.5t35 199q0 141 -67 218t-179 77q-72 0 -143.5 -37t-128 -101.5t-91 -154.5t-34.5 -197zM481 1123l227 258q33 18 66 18q35 0 53.5 -13t30.5 -36l129 -240q-27 -20 -55 -20q-37 0 -54.5 16.5t-25.5 32.5l-82 166l-150 -180 q-16 -20 -31.5 -27.5t-35.5 -7.5q-23 0 -42.5 11t-29.5 22z" />
<glyph unicode="&#xf5;" horiz-adv-x="1056" d="M141 387q0 119 42 228.5t116 193.5t174 135t217 51q86 0 154.5 -30.5t116 -85t72 -130t24.5 -163.5q0 -119 -40 -228.5t-111.5 -192.5t-171 -133t-216.5 -50q-86 0 -155.5 30.5t-118.5 85t-76 128t-27 161.5zM279 389q0 -74 20 -128t54 -91t79 -54.5t96 -17.5 q72 0 142.5 35t126 98.5t90.5 153.5t35 199q0 141 -67 218t-179 77q-72 0 -143.5 -37t-128 -101.5t-91 -154.5t-34.5 -197zM485 1180q37 90 81 139t103 49q35 0 65 -19.5t55.5 -42t49 -42t45.5 -19.5q23 0 36.5 17.5t25.5 38t25.5 38t35.5 17.5q40 0 58 -31 q-37 -98 -82 -143t-99 -45q-37 0 -69.5 18.5t-59 41t-50 40.5t-42.5 18q-23 0 -36 -16t-24 -36.5t-24.5 -37t-38.5 -16.5q-16 0 -31.5 9t-23.5 22z" />
<glyph unicode="&#xf6;" horiz-adv-x="1056" d="M141 387q0 119 42 228.5t116 193.5t174 135t217 51q86 0 154.5 -30.5t116 -85t72 -130t24.5 -163.5q0 -119 -40 -228.5t-111.5 -192.5t-171 -133t-216.5 -50q-86 0 -155.5 30.5t-118.5 85t-76 128t-27 161.5zM279 389q0 -74 20 -128t54 -91t79 -54.5t96 -17.5 q72 0 142.5 35t126 98.5t90.5 153.5t35 199q0 141 -67 218t-179 77q-72 0 -143.5 -37t-128 -101.5t-91 -154.5t-34.5 -197zM509 1239q0 39 25 67.5t66 28.5q35 0 56 -25.5t21 -60.5q0 -39 -24.5 -65.5t-65.5 -26.5q-35 0 -56.5 23.5t-21.5 58.5zM839 1239q0 39 24.5 67.5 t65.5 28.5q35 0 56.5 -25.5t21.5 -60.5q0 -39 -24.5 -65.5t-65.5 -26.5q-35 0 -56.5 23.5t-21.5 58.5z" />
<glyph unicode="&#xf7;" horiz-adv-x="1232" d="M113 535q0 37 15 51t42 14h944q2 -10 4 -26.5t2 -34.5q0 -37 -15 -51.5t-42 -14.5h-944q-2 10 -4 26.5t-2 35.5zM524 903q0 41 30 69.5t67 28.5q41 0 69.5 -28.5t28.5 -69.5q0 -37 -28.5 -66.5t-69.5 -29.5q-37 0 -67 29.5t-30 66.5zM526 170q0 41 29 69.5t68 28.5 q41 0 69.5 -28.5t28.5 -69.5q0 -39 -28.5 -68.5t-69.5 -29.5q-39 0 -68 29.5t-29 68.5z" />
<glyph unicode="&#xf8;" horiz-adv-x="1056" d="M141 387q0 119 42 228.5t116 193.5t174 135t217 51q102 0 184 -47l50 68q29 37 65 37q23 0 41.5 -15.5t24.5 -38.5l-92 -125q94 -111 94 -288q0 -119 -40 -228.5t-111.5 -192.5t-171 -133t-216.5 -50q-51 0 -96 11t-84 30l-49 -68q-29 -37 -66 -37q-23 0 -41 15.5 t-24 37.5l88 121q-104 115 -105 295zM279 389q0 -117 47 -186l473 643q-55 33 -123 33q-72 0 -143.5 -37t-128 -101.5t-91 -155t-34.5 -196.5zM412 125q50 -27 116 -27q72 0 142.5 35t126 98.5t90.5 153.5t35 199q0 106 -41 178z" />
<glyph unicode="&#xf9;" horiz-adv-x="1081" d="M178 283q0 23 3 48t7 54l101 537q10 57 73 57q16 0 35 -5t33 -11l-106 -582q-4 -25 -6.5 -47.5t-2.5 -42.5q0 -98 47.5 -144.5t126.5 -46.5q57 0 118 29t115 83t94 130t58 170l76 412q8 55 74 55q16 0 35.5 -5t34.5 -11l-90 -469q-20 -100 -30.5 -180.5t-10.5 -149.5 q0 -88 20 -158q-12 -8 -29.5 -12t-46.5 -4q-45 0 -60.5 38t-15.5 91q0 41 7 84h-4q-59 -92 -148.5 -156.5t-220.5 -64.5q-129 0 -208 78.5t-79 222.5zM609 1331q0 63 77 93l236 -289q-16 -16 -36.5 -25.5t-45.5 -9.5q-18 0 -38.5 8t-39.5 27l-112 112q-41 41 -41 84z" />
<glyph unicode="&#xfa;" horiz-adv-x="1081" d="M178 283q0 23 3 48t7 54l101 537q10 57 73 57q16 0 35 -5t33 -11l-106 -582q-4 -25 -6.5 -47.5t-2.5 -42.5q0 -98 47.5 -144.5t126.5 -46.5q57 0 118 29t115 83t94 130t58 170l76 412q8 55 74 55q16 0 35.5 -5t34.5 -11l-90 -469q-20 -100 -30.5 -180.5t-10.5 -149.5 q0 -88 20 -158q-12 -8 -29.5 -12t-46.5 -4q-45 0 -60.5 38t-15.5 91q0 41 7 84h-4q-59 -92 -148.5 -156.5t-220.5 -64.5q-129 0 -208 78.5t-79 222.5zM604 1143l322 301q31 -14 48 -34.5t17 -47.5t-9 -46.5t-34 -37.5l-180 -135q-53 -35 -90 -35q-45 0 -74 35z" />
<glyph unicode="&#xfb;" horiz-adv-x="1081" d="M178 283q0 23 3 48t7 54l101 537q10 57 73 57q16 0 35 -5t33 -11l-106 -582q-4 -25 -6.5 -47.5t-2.5 -42.5q0 -98 47.5 -144.5t126.5 -46.5q57 0 118 29t115 83t94 130t58 170l76 412q8 55 74 55q16 0 35.5 -5t34.5 -11l-90 -469q-20 -100 -30.5 -180.5t-10.5 -149.5 q0 -88 20 -158q-12 -8 -29.5 -12t-46.5 -4q-45 0 -60.5 38t-15.5 91q0 41 7 84h-4q-59 -92 -148.5 -156.5t-220.5 -64.5q-129 0 -208 78.5t-79 222.5zM481 1141l227 258q33 18 66 18q35 0 53.5 -13t30.5 -36l129 -240q-27 -20 -55 -20q-37 0 -54.5 16.5t-25.5 32.5l-82 166 l-150 -180q-16 -20 -31.5 -27.5t-35.5 -7.5q-23 0 -42.5 11t-29.5 22z" />
<glyph unicode="&#xfc;" horiz-adv-x="1081" d="M178 283q0 23 3 48t7 54l101 537q10 57 73 57q16 0 35 -5t33 -11l-106 -582q-4 -25 -6.5 -47.5t-2.5 -42.5q0 -98 47.5 -144.5t126.5 -46.5q57 0 118 29t115 83t94 130t58 170l76 412q8 55 74 55q16 0 35.5 -5t34.5 -11l-90 -469q-20 -100 -30.5 -180.5t-10.5 -149.5 q0 -88 20 -158q-12 -8 -29.5 -12t-46.5 -4q-45 0 -60.5 38t-15.5 91q0 41 7 84h-4q-59 -92 -148.5 -156.5t-220.5 -64.5q-129 0 -208 78.5t-79 222.5zM497 1239q0 39 25 67.5t66 28.5q35 0 56 -25.5t21 -60.5q0 -39 -24.5 -65.5t-65.5 -26.5q-35 0 -56.5 23.5t-21.5 58.5z M827 1239q0 39 24.5 67.5t65.5 28.5q35 0 56.5 -25.5t21.5 -60.5q0 -39 -24.5 -65.5t-65.5 -26.5q-35 0 -56.5 23.5t-21.5 58.5z" />
<glyph unicode="&#xfd;" horiz-adv-x="868" d="M25 -354q94 96 165.5 179t143.5 187q-35 248 -75 483.5t-107 462.5q10 10 25.5 15.5t29.5 5.5q35 0 63.5 -20.5t51.5 -94.5q14 -47 29.5 -129t30.5 -180t27.5 -204.5t18.5 -203.5q51 82 105.5 186.5t103.5 209t88 196.5t63 152q23 51 52.5 69.5t60.5 18.5q23 0 39 -6 t25 -15q-90 -211 -177.5 -392t-178.5 -342t-192.5 -303t-221.5 -275q-35 -41 -82 -41q-29 0 -51.5 12t-36.5 29zM467 1143l322 301q31 -14 48 -34.5t17 -47.5t-9 -46.5t-34 -37.5l-180 -135q-53 -35 -90 -35q-45 0 -74 35z" />
<glyph unicode="&#xfe;" horiz-adv-x="1069" d="M57 -377l320 1714q4 25 23.5 40.5t56.5 15.5q18 0 34.5 -3.5t26.5 -7.5l-121 -604l2 -2q55 86 140.5 151.5t205.5 65.5q80 0 141.5 -31.5t101.5 -84t60.5 -120t20.5 -141.5q0 -139 -41 -254.5t-114.5 -200.5t-175 -132t-222.5 -47q-147 0 -246 79l-71 -397 q-10 -57 -74 -57q-16 0 -34.5 5t-33.5 11zM293 186q43 -49 105.5 -68.5t127.5 -19.5q74 0 148 36t131 102.5t93 164t36 220.5q0 51 -13.5 97t-40 81t-65.5 56.5t-88 21.5q-61 0 -122.5 -30t-114 -85t-92.5 -133t-56 -170z" />
<glyph unicode="&#xff;" horiz-adv-x="868" d="M25 -354q94 96 165.5 179t143.5 187q-35 248 -75 483.5t-107 462.5q10 10 25.5 15.5t29.5 5.5q35 0 63.5 -20.5t51.5 -94.5q14 -47 29.5 -129t30.5 -180t27.5 -204.5t18.5 -203.5q51 82 105.5 186.5t103.5 209t88 196.5t63 152q23 51 52.5 69.5t60.5 18.5q23 0 39 -6 t25 -15q-90 -211 -177.5 -392t-178.5 -342t-192.5 -303t-221.5 -275q-35 -41 -82 -41q-29 0 -51.5 12t-36.5 29zM370 1239q0 39 25 67.5t66 28.5q35 0 56 -25.5t21 -60.5q0 -39 -24.5 -65.5t-65.5 -26.5q-35 0 -56.5 23.5t-21.5 58.5zM700 1239q0 39 24.5 67.5t65.5 28.5 q35 0 56.5 -25.5t21.5 -60.5q0 -39 -24.5 -65.5t-65.5 -26.5q-35 0 -56.5 23.5t-21.5 58.5z" />
<glyph unicode="&#x152;" horiz-adv-x="1710" d="M152 541q0 162 60 308t161.5 258t236.5 177.5t283 65.5q78 0 140.5 -9.5t140.5 -9.5h647q4 -16 4 -39q0 -41 -16.5 -63.5t-51.5 -24.5h-536l-86 -477h522q4 -16 4 -39q0 -41 -16.5 -63.5t-53.5 -22.5h-481l-86 -475h588q4 -16 4 -41q0 -41 -16.5 -63.5t-53.5 -22.5h-612 q-23 0 -54.5 -3t-68.5 -6t-76 -6t-76 -3q-117 0 -210 43t-159.5 117.5t-102 177t-35.5 221.5zM301 537q0 -96 27.5 -176t77 -137.5t118 -88.5t152.5 -31q59 0 107 7.5t102 23.5l194 1063q-86 29 -196 29q-117 0 -222.5 -57.5t-185.5 -152.5t-127 -220t-47 -260z" />
<glyph unicode="&#x153;" horiz-adv-x="1716" d="M141 387q0 119 43 228.5t119 193.5t178.5 135t220.5 51q135 0 226.5 -68.5t128.5 -185.5q78 123 192.5 188.5t239.5 65.5q74 0 126 -19.5t84 -50t47 -68.5t15 -75q0 -170 -174 -273t-512 -120v-14q0 -125 72 -200t205 -75q59 0 100 9.5t69.5 19.5t50 19.5t44.5 9.5 t38 -16.5t15 -49.5q0 -8 -1 -16t-3 -19q-59 -29 -140 -54.5t-182 -25.5q-147 0 -241 68t-139 180q-72 -117 -180.5 -180t-247.5 -63q-90 0 -162 30.5t-124 85t-80 128t-28 161.5zM276 389q0 -74 21.5 -128t58.5 -91t86.5 -54.5t102.5 -17.5q74 0 147.5 35t131 98.5t93 153.5 t35.5 199q0 141 -72.5 218t-191.5 77q-76 0 -149.5 -37t-132 -101.5t-94.5 -154.5t-36 -197zM1079 494q141 2 243.5 27.5t169.5 63.5t98.5 85t31.5 92q0 55 -38 88t-111 33q-63 0 -128 -29t-118 -80t-93.5 -122.5t-54.5 -157.5z" />
<glyph unicode="&#x178;" horiz-adv-x="1069" d="M236 1311q10 10 30.5 17t42.5 7q27 0 48.5 -9t33.5 -38l246 -610l461 616q23 27 42 36t48 9t52.5 -9t35.5 -17l-588 -762l-94 -506q-8 -57 -78 -57q-16 0 -34.5 5t-32.5 11l104 555zM561 1589q0 39 25 67.5t66 28.5q35 0 56 -25.5t21 -60.5q0 -39 -24.5 -65.5 t-65.5 -26.5q-35 0 -56.5 23.5t-21.5 58.5zM891 1589q0 39 24.5 67.5t65.5 28.5q35 0 56.5 -25.5t21.5 -60.5q0 -39 -24.5 -65.5t-65.5 -26.5q-35 0 -56.5 23.5t-21.5 58.5z" />
<glyph unicode="&#x2c6;" horiz-adv-x="925" d="M430 1141l227 258q33 18 66 18q35 0 53.5 -13t30.5 -36l129 -240q-27 -20 -55 -20q-37 0 -54.5 16.5t-25.5 32.5l-82 166l-150 -180q-16 -20 -31.5 -27.5t-35.5 -7.5q-23 0 -42.5 11t-29.5 22z" />
<glyph unicode="&#x2dc;" horiz-adv-x="815" d="M344 1180q37 90 81 139t103 49q35 0 65 -19.5t55.5 -42t49 -42t45.5 -19.5q23 0 36.5 17.5t25.5 38t25.5 38t35.5 17.5q40 0 58 -31q-37 -98 -82 -143t-99 -45q-37 0 -69.5 18.5t-59 41t-50 40.5t-42.5 18q-23 0 -36 -16t-24 -36.5t-24.5 -37t-38.5 -16.5q-16 0 -31.5 9 t-23.5 22z" />
<glyph unicode="&#x2000;" horiz-adv-x="900" />
<glyph unicode="&#x2001;" horiz-adv-x="1800" />
<glyph unicode="&#x2002;" horiz-adv-x="900" />
<glyph unicode="&#x2003;" horiz-adv-x="1800" />
<glyph unicode="&#x2004;" horiz-adv-x="600" />
<glyph unicode="&#x2005;" horiz-adv-x="450" />
<glyph unicode="&#x2006;" horiz-adv-x="300" />
<glyph unicode="&#x2007;" horiz-adv-x="300" />
<glyph unicode="&#x2008;" horiz-adv-x="225" />
<glyph unicode="&#x2009;" horiz-adv-x="360" />
<glyph unicode="&#x200a;" horiz-adv-x="100" />
<glyph unicode="&#x2010;" horiz-adv-x="677" d="M141 457v27.5t4 33.5q6 35 24.5 50.5t41.5 15.5h498q2 -10 0 -26.5t-7 -33.5q-8 -39 -23 -53t-38 -14h-500z" />
<glyph unicode="&#x2011;" horiz-adv-x="677" d="M141 457v27.5t4 33.5q6 35 24.5 50.5t41.5 15.5h498q2 -10 0 -26.5t-7 -33.5q-8 -39 -23 -53t-38 -14h-500z" />
<glyph unicode="&#x2012;" horiz-adv-x="677" d="M141 457v27.5t4 33.5q6 35 24.5 50.5t41.5 15.5h498q2 -10 0 -26.5t-7 -33.5q-8 -39 -23 -53t-38 -14h-500z" />
<glyph unicode="&#x2013;" horiz-adv-x="851" d="M141 508q0 39 19.5 57.5t48.5 18.5h665q10 -25 11 -52q0 -39 -19.5 -57t-48.5 -18h-665q-10 25 -11 51z" />
<glyph unicode="&#x2014;" horiz-adv-x="1234" d="M141 508q0 39 19.5 57.5t48.5 18.5h1048q10 -25 11 -52q0 -39 -19.5 -57t-48.5 -18h-1048q-10 25 -11 51z" />
<glyph unicode="&#x2018;" horiz-adv-x="311" d="M221 1020q0 35 26.5 91t66.5 109.5t86 92.5t87 39q16 0 25 -2l-168 -340q-16 -33 -33.5 -43.5t-34.5 -10.5q-25 0 -40 18.5t-15 45.5z" />
<glyph unicode="&#x2019;" horiz-adv-x="311" d="M200 975l168 340q16 33 32.5 43t35.5 10q25 0 40 -18.5t15 -45.5q0 -33 -18.5 -75.5t-50.5 -90.5q-25 -37 -51.5 -69.5t-53.5 -56t-56.5 -35t-60.5 -2.5z" />
<glyph unicode="&#x201a;" horiz-adv-x="372" d="M-29 -229l168 340q16 33 32.5 43t35.5 10q25 0 40 -18.5t15 -45.5q0 -33 -18.5 -75.5t-50.5 -90.5q-25 -37 -51.5 -69.5t-53.5 -56t-56.5 -35t-60.5 -2.5z" />
<glyph unicode="&#x201c;" horiz-adv-x="587" d="M221 1020q0 35 26.5 91t66.5 109.5t86 92.5t87 39q16 0 25 -2l-168 -340q-16 -33 -33.5 -43.5t-34.5 -10.5q-25 0 -40 18.5t-15 45.5zM512 1020q0 35 26.5 91t66.5 109.5t86 92.5t87 39q16 0 25 -2l-168 -340q-16 -33 -33.5 -43.5t-34.5 -10.5q-25 0 -40 18.5t-15 45.5z " />
<glyph unicode="&#x201d;" horiz-adv-x="585" d="M233 975l168 340q16 33 32.5 43t35.5 10q25 0 40 -18.5t15 -45.5q0 -33 -18.5 -75.5t-50.5 -90.5q-25 -37 -51.5 -69.5t-53.5 -56t-56.5 -35t-60.5 -2.5zM495 975l168 340q16 33 32.5 43t35.5 10q25 0 40 -18.5t15 -45.5q0 -33 -18.5 -75.5t-50.5 -90.5 q-25 -37 -51.5 -69.5t-53.5 -56t-56.5 -35t-60.5 -2.5z" />
<glyph unicode="&#x201e;" horiz-adv-x="595" d="M-27 -229l168 340q16 33 32.5 43t35.5 10q25 0 40 -18.5t15 -45.5q0 -33 -18.5 -75.5t-50.5 -90.5q-25 -37 -51.5 -69.5t-53.5 -56t-56.5 -35t-60.5 -2.5zM237 -229l168 340q16 33 32.5 43t35.5 10q25 0 40 -18.5t15 -45.5q0 -33 -18.5 -75.5t-50.5 -90.5 q-25 -37 -51.5 -69.5t-53.5 -56t-56.5 -35t-60.5 -2.5z" />
<glyph unicode="&#x2022;" horiz-adv-x="739" d="M248 614q0 53 18.5 100.5t52 83.5t78.5 57.5t101 21.5q47 0 87 -19.5t68.5 -51.5t45 -75t16.5 -90q0 -53 -18.5 -100t-52.5 -83t-80 -56.5t-99 -20.5q-49 0 -89 18.5t-68.5 50t-44 73.5t-15.5 91z" />
<glyph unicode="&#x2026;" horiz-adv-x="1390" d="M88 78q0 41 28 72.5t71 31.5q39 0 62.5 -27.5t23.5 -66.5q0 -41 -28 -71.5t-71 -30.5q-39 0 -62.5 26.5t-23.5 65.5zM575 78q0 41 28 72.5t71 31.5q39 0 62.5 -27.5t23.5 -66.5q0 -41 -28 -71.5t-71 -30.5q-39 0 -62.5 26.5t-23.5 65.5zM1065 78q0 41 28 72.5t71 31.5 q39 0 62.5 -27.5t23.5 -66.5q0 -41 -28 -71.5t-71 -30.5q-39 0 -62.5 26.5t-23.5 65.5z" />
<glyph unicode="&#x202f;" horiz-adv-x="360" />
<glyph unicode="&#x2039;" horiz-adv-x="671" d="M150 485l22 117l483 301q4 -8 12.5 -24.5t8.5 -42.5q0 -29 -12.5 -53.5t-40.5 -41.5l-332 -204l244 -191q37 -29 36 -74q0 -29 -15 -50t-32 -38z" />
<glyph unicode="&#x203a;" horiz-adv-x="671" d="M174 252q0 29 12.5 54.5t40.5 41.5l332 205l-244 190q-37 29 -36 72q0 29 15 50.5t32 37.5l374 -301l-22 -117l-483 -301q-4 8 -12.5 24.5t-8.5 43.5z" />
<glyph unicode="&#x205f;" horiz-adv-x="450" />
<glyph unicode="&#x20ac;" horiz-adv-x="1161" d="M160 537q0 72 59 71h86q4 29 8 55.5t9 55.5h-127q-4 16 -5 35q0 72 60 71h98q35 109 94.5 203t137 163t173 107.5t201.5 38.5q74 0 147 -18.5t126 -44.5q4 -68 -19.5 -87.5t-46.5 -19.5q-18 0 -35.5 6.5t-42 13.5t-59.5 13t-90 6q-74 0 -141.5 -27.5t-124 -78.5 t-100.5 -121t-72 -154h413q4 -16 4 -34q0 -72 -59 -72h-389q-6 -29 -10 -55.5t-6 -55.5h430q4 -16 4 -35q0 -72 -60 -71h-379q2 -98 29 -173t73 -125t109.5 -76t137.5 -26q51 0 90 8.5t67.5 18.5t51 18.5t40.5 8.5q12 0 28.5 -8.5t26 -21.5t9.5 -36q0 -18 -4 -43 q-74 -39 -154 -55.5t-168 -16.5q-102 0 -188 36t-149.5 103.5t-99.5 166t-40 221.5h-139q-4 16 -4 35z" />
<glyph unicode="&#x2122;" horiz-adv-x="1234" d="M211 1288q0 25 8 34t25 9h436q0 -4 2 -13t2 -26q0 -41 -35 -41h-162v-493q0 -35 -45 -35q-10 0 -21 2t-18 4v522h-188q-4 20 -4 37zM713 733l61 590q10 4 27.5 7t27.5 3q35 0 50.5 -9t23.5 -34l127 -426l129 426q8 25 23.5 34t44.5 9q16 0 30.5 -2t24.5 -6l64 -594 q-8 -2 -17.5 -4t-21.5 -2q-39 0 -41 27l-49 491l-140 -444q-10 -31 -51 -31q-10 0 -24.5 2t-20.5 6l-141 465l-47 -487q-2 -29 -41 -29q-12 0 -21.5 2t-17.5 6z" />
<glyph unicode="&#x25fc;" horiz-adv-x="983" d="M0 0v983h983v-983h-983z" />
</font>
</defs>
</svg>
