<?xml version="1.0" encoding="utf-8"?>
<!-- Generator: Adobe Illustrator 17.0.0, SVG Export Plug-In . SVG Version: 6.00 Build 0)  -->
<!DOCTYPE svg PUBLIC "-//W3C//DTD SVG 1.1//EN" "http://www.w3.org/Graphics/SVG/1.1/DTD/svg11.dtd">
<svg version="1.1" id="Layer_1" xmlns="http://www.w3.org/2000/svg" xmlns:xlink="http://www.w3.org/1999/xlink" x="0px" y="0px"
	 width="221.393px" height="60.549px" viewBox="0 0 221.393 60.549" enable-background="new 0 0 221.393 60.549"
	 xml:space="preserve">
<path fill="#A2ACAC" d="M65.178,52.299h0.062c1.253,1.834,3.117,2.842,5.347,2.842c4.462,0,6.204-4.34,6.204-8.19
	c0-3.972-1.742-8.067-6.295-8.067c-2.048,0-4.187,0.979-5.256,2.781l-0.062-0.061l-0.091-2.261h-1.895
	c0.062,1.038,0.184,2.261,0.153,3.453v17.753h1.833V52.299z M65.178,46.646c0-3.117,1.375-6.08,4.951-6.08
	c3.483,0,4.676,3.239,4.676,6.173c0,2.842-0.886,6.722-4.4,6.722C66.401,53.46,65.178,50.13,65.178,46.646 M57.692,48.174
	c0,2.75-1.375,5.287-4.4,5.287c-2.506,0-4.034-1.559-4.034-4.217v-9.901h-1.833v9.595c0,1.772,0.397,6.204,5.409,6.204
	c1.986,0,3.728-0.886,4.798-2.781l0.061,0.061l0.091,2.261h1.895c-0.061-1.038-0.152-2.261-0.152-3.453V39.343h-1.834L57.692,48.174
	L57.692,48.174z M37.249,38.884c-4.889,0-7.15,4.095-7.15,8.128c0,4.034,2.261,8.129,7.15,8.129s7.15-4.095,7.15-8.129
	C44.399,42.979,42.138,38.884,37.249,38.884 M42.413,47.012c0,2.842-1.466,6.448-5.164,6.448c-3.697,0-5.163-3.606-5.163-6.448
	s1.466-6.447,5.163-6.447C40.947,40.565,42.413,44.171,42.413,47.012 M23.62,45.454c0.062-2.934,1.497-4.889,4.218-4.889
	c0.367,0,0.764,0.091,1.131,0.122v-1.772c-0.611-0.031-1.223-0.061-1.834-0.031c-1.528,0.062-2.903,1.161-3.453,2.72H23.62
	l-0.091-2.261h-1.895c0.062,1.038,0.184,2.261,0.153,3.453v11.887h1.833V45.454z M9.809,43.437v1.833h5.531v7.121
	c-1.559,0.458-3.239,0.916-4.889,0.916c-5.959,0-8.312-4.034-8.312-9.656c0-4.583,1.986-9.656,7.273-9.656
	c2.628,0,5.103,1.253,5.5,4.065h2.261c-0.336-3.912-4.094-5.898-7.761-5.898C3.025,32.162,0,37.968,0,43.651
	c0,6.784,3.392,11.49,9.412,11.49c2.842,0,5.256-0.337,7.914-1.375V43.437H9.809z"/>
<path fill="#FFFFFF" d="M221.393,0.091h-1.833v22.062h1.833V0.091z M213.693,12.742c-2.23,0.122-4.889-0.183-6.937,0.703
	c-1.833,0.764-3.086,2.353-3.086,4.43c0,2.995,2.261,4.736,5.103,4.736c2.078,0,4.125-1.222,4.798-2.506l0.091-0.214h0.062
	l0.061,2.261h1.895c-0.062-1.039-0.184-2.261-0.153-3.453v-7.273c0.062-3.514-2.047-5.073-5.439-5.073
	c-2.934,0-5.287,1.192-5.746,4.34h1.956c0.244-2.078,1.833-2.659,3.759-2.659c2.17,0,3.453,0.794,3.636,3.3L213.693,12.742
	L213.693,12.742z M205.656,17.876c0-3.85,5.44-3.361,8.037-3.453c0.183,3.208-0.581,6.509-4.584,6.509
	C207.245,20.932,205.656,19.954,205.656,17.876 M190.622,13.323c0-2.75,1.375-5.287,4.4-5.287c2.506,0,4.034,1.558,4.034,4.217
	v9.901h1.833v-9.595c0-1.772-0.397-6.204-5.409-6.204c-1.986,0-3.728,0.886-4.798,2.781l-0.061-0.062l-0.091-2.26h-1.895
	c0.061,1.038,0.153,2.26,0.153,3.453v11.887h1.833v-8.831H190.622z M178.613,6.355c-4.889,0-7.15,4.095-7.15,8.128
	c0,4.034,2.261,8.128,7.15,8.128c4.889,0,7.15-4.094,7.15-8.128C185.764,10.451,183.503,6.355,178.613,6.355 M183.778,14.484
	c0,2.842-1.467,6.448-5.164,6.448c-3.698,0-5.164-3.606-5.164-6.448s1.466-6.447,5.164-6.447
	C182.31,8.037,183.778,11.642,183.778,14.484 M168.56,0.091h-2.139v2.292h2.139V0.091z M166.574,22.154h1.833V6.814h-1.833V22.154z
	 M158.446,18.059c0,2.077-0.214,4.552,3.667,4.552c0.611,0,1.284-0.122,1.864-0.274v-1.59c-0.489,0.153-1.038,0.184-1.589,0.184
	c-1.406,0-2.139-0.764-2.108-2.17V8.495h3.483v-1.68h-3.483V2.75l-1.834,0.795v3.27h-3.055v1.68h3.055V18.059z M151.295,12.742
	c-2.23,0.122-4.888-0.183-6.936,0.703c-1.834,0.764-3.087,2.353-3.087,4.43c0,2.995,2.261,4.736,5.104,4.736
	c2.078,0,4.125-1.222,4.797-2.506l0.092-0.214h0.061l0.062,2.261h1.895c-0.062-1.039-0.184-2.261-0.153-3.453v-7.273
	c0.061-3.514-2.048-5.073-5.44-5.073c-2.933,0-5.287,1.192-5.745,4.34h1.956c0.244-2.078,1.833-2.659,3.759-2.659
	c2.169,0,3.453,0.794,3.635,3.3L151.295,12.742L151.295,12.742z M143.259,17.876c0-3.85,5.439-3.361,8.036-3.453
	c0.184,3.208-0.58,6.509-4.583,6.509C144.848,20.932,143.259,19.954,143.259,17.876 M128.225,13.323c0-2.75,1.375-5.287,4.399-5.287
	c2.506,0,4.034,1.558,4.034,4.217v9.901h1.834v-9.595c0-1.772-0.397-6.204-5.409-6.204c-1.986,0-3.728,0.886-4.798,2.781
	l-0.061-0.062l-0.092-2.26h-1.895c0.062,1.038,0.153,2.26,0.153,3.453v11.887h1.834L128.225,13.323L128.225,13.323z M118.813,12.926
	c0.061-2.934,1.497-4.889,4.217-4.889c0.367,0,0.764,0.091,1.131,0.122V6.386c-0.611-0.031-1.222-0.062-1.833-0.031
	c-1.528,0.062-2.903,1.161-3.454,2.719h-0.061l-0.091-2.26h-1.895c0.061,1.038,0.183,2.26,0.153,3.453v11.887h1.833V12.926z
	 M101.885,13.231c0.244-2.689,1.833-5.194,4.829-5.194c3.177,0,4.766,2.23,4.981,5.194
	C111.695,13.231,101.885,13.231,101.885,13.231z M113.68,14.912c0-4.798-1.864-8.556-6.997-8.556c-4.553,0-6.845,3.972-6.845,8.128
	c0,4.187,2.139,8.128,6.723,8.128c3.697,0,5.989-1.68,6.936-5.347h-1.924c-0.459,2.108-2.261,3.667-4.431,3.667
	c-3.759,0-5.256-2.75-5.316-6.02C101.826,14.912,113.68,14.912,113.68,14.912z M92.657,18.059c0,2.077-0.214,4.552,3.667,4.552
	c0.611,0,1.283-0.122,1.864-0.274v-1.59c-0.489,0.153-1.039,0.184-1.59,0.184c-1.405,0-2.138-0.764-2.108-2.17V8.495h3.483v-1.68
	H94.49V2.75l-1.833,0.795v3.27h-3.056v1.68h3.056V18.059z M76.95,13.323c0-2.75,1.375-5.287,4.4-5.287
	c2.506,0,4.034,1.558,4.034,4.217v9.901h1.833v-9.595c0-1.772-0.397-6.204-5.409-6.204c-1.986,0-3.728,0.886-4.797,2.781
	L76.95,9.075l-0.091-2.26h-1.895c0.062,1.038,0.153,2.26,0.153,3.453v11.887h1.833V13.323z M70.197,0h-1.986v22.154h1.986V0z
	 M51.557,18.059c0,2.077-0.214,4.552,3.667,4.552c0.611,0,1.284-0.122,1.864-0.274v-1.59c-0.489,0.153-1.039,0.184-1.589,0.184
	c-1.406,0-2.139-0.764-2.108-2.17V8.495h3.483v-1.68h-3.483V2.75l-1.834,0.795v3.27h-3.055v1.68h3.055
	C51.557,8.495,51.557,18.059,51.557,18.059z M35.209,10.634c0,2.842,2.444,3.545,4.858,4.125c2.444,0.55,4.858,0.917,4.858,3.117
	c0,2.139-2.048,3.056-4.003,3.056c-2.077,0-4.094-0.673-4.247-2.964H34.69c0.061,3.391,3.117,4.644,5.775,4.644
	c3.239,0,6.447-1.558,6.447-5.011c0-1.649-1.008-3.024-2.597-3.575c-4.156-1.466-7.12-1.253-7.12-3.514
	c0-1.803,1.742-2.475,3.453-2.475c1.895,0,3.606,0.642,3.789,2.566h1.986c-0.244-3.239-2.689-4.247-5.592-4.247
	C38.142,6.355,35.209,7.455,35.209,10.634 M20.633,13.231c0.244-2.689,1.833-5.194,4.828-5.194c3.178,0,4.767,2.23,4.982,5.194
	C30.443,13.231,20.633,13.231,20.633,13.231z M32.429,14.912c0-4.798-1.864-8.556-6.997-8.556c-4.553,0-6.845,3.972-6.845,8.128
	c0,4.187,2.139,8.128,6.723,8.128c3.697,0,5.989-1.68,6.936-5.347H30.32c-0.459,2.108-2.261,3.667-4.431,3.667
	c-3.759,0-5.256-2.75-5.317-6.02C20.572,14.912,32.429,14.912,32.429,14.912z M9.504,22.154c4.798,0,6.569-2.995,6.569-5.898
	c0-3.148-2.017-5.103-5.011-5.592v-0.062c2.323-0.549,4.095-2.536,4.095-4.981c0-3.514-2.872-5.5-6.142-5.5l-7.914-0.03v22.062
	L9.504,22.154L9.504,22.154z M3.087,9.809V1.925h4.705c2.598,0.03,5.226,0.672,5.226,3.881c0,2.995-2.567,4.003-5.134,4.003H3.087z
	 M3.087,11.642h3.667c4.156,0,7.18,0.58,7.18,4.339c0,3.392-2.2,4.4-5.989,4.34H3.087V11.642z"/>
</svg>
