<?xml version="1.0" encoding="utf-8"?>
<!-- Generator: Adobe Illustrator 17.0.0, SVG Export Plug-In . SVG Version: 6.00 Build 0)  -->
<!DOCTYPE svg PUBLIC "-//W3C//DTD SVG 1.1//EN" "http://www.w3.org/Graphics/SVG/1.1/DTD/svg11.dtd">
<svg version="1.1" id="Layer_1" xmlns="http://www.w3.org/2000/svg" xmlns:xlink="http://www.w3.org/1999/xlink" x="0px" y="0px"
	 width="26.992px" height="23.672px" viewBox="0 0 26.992 23.672" enable-background="new 0 0 26.992 23.672" xml:space="preserve">
<path fill="#333333" d="M31.89,11.245c-0.13,0.038-0.303,0.067-0.497,0.091c0.194,0.024,0.366,0.053,0.497,0.091
	c0.348,0.103,0.523,0.239,0.523,0.409s-0.175,0.306-0.523,0.409c-0.349,0.102-0.925,0.154-1.731,0.154H-3.165
	c-0.806,0-1.385-0.051-1.733-0.154c-0.349-0.103-0.524-0.239-0.524-0.409s0.175-0.306,0.524-0.409
	c0.129-0.038,0.301-0.067,0.495-0.091c-0.193-0.024-0.365-0.053-0.495-0.091c-0.349-0.103-0.524-0.239-0.524-0.409
	s0.175-0.306,0.524-0.409c0.348-0.103,0.927-0.154,1.733-0.154h33.322c0.806,0,1.382,0.051,1.733,0.154
	c0.348,0.103,0.523,0.239,0.523,0.409S32.237,11.142,31.89,11.245z M32.413,18.109c0-0.17-0.175-0.306-0.523-0.409
	c-0.35-0.103-0.927-0.154-1.733-0.154H-3.165c-0.806,0-1.385,0.051-1.733,0.154c-0.349,0.103-0.524,0.239-0.524,0.409
	s0.175,0.306,0.524,0.409c0.129,0.038,0.301,0.067,0.495,0.091c-0.193,0.024-0.365,0.053-0.495,0.091
	c-0.349,0.103-0.524,0.239-0.524,0.409s0.175,0.306,0.524,0.409c0.348,0.103,0.927,0.154,1.733,0.154h33.324
	c0.806,0,1.382-0.051,1.731-0.154c0.348-0.103,0.523-0.239,0.523-0.409s-0.175-0.306-0.523-0.409
	c-0.13-0.038-0.302-0.067-0.495-0.091c0.193-0.024,0.365-0.053,0.495-0.091C32.237,18.415,32.413,18.279,32.413,18.109z
	 M31.89,4.154c-0.131-0.038-0.303-0.067-0.497-0.091c0.194-0.024,0.367-0.053,0.497-0.091c0.348-0.103,0.523-0.239,0.523-0.409
	s-0.175-0.306-0.523-0.409C31.539,3.051,30.963,3,30.157,3H-3.165C-3.971,3-4.55,3.051-4.897,3.154
	c-0.349,0.103-0.524,0.239-0.524,0.409s0.175,0.306,0.524,0.409c0.129,0.038,0.302,0.067,0.495,0.091
	c-0.193,0.024-0.365,0.053-0.495,0.091c-0.349,0.103-0.524,0.239-0.524,0.409s0.175,0.306,0.524,0.409
	c0.348,0.103,0.927,0.154,1.733,0.154h33.324c0.806,0,1.382-0.052,1.731-0.154c0.348-0.103,0.523-0.239,0.523-0.409
	S32.237,4.257,31.89,4.154z"/>
</svg>
