<?xml version="1.0" encoding="utf-8"?>
<!-- Generator: Adobe Illustrator 17.0.0, SVG Export Plug-In . SVG Version: 6.00 Build 0)  -->
<!DOCTYPE svg PUBLIC "-//W3C//DTD SVG 1.1//EN" "http://www.w3.org/Graphics/SVG/1.1/DTD/svg11.dtd">
<svg version="1.1" id="Layer_1" xmlns="http://www.w3.org/2000/svg" xmlns:xlink="http://www.w3.org/1999/xlink" x="0px" y="0px"
	 width="26.992px" height="23.672px" viewBox="0 0 26.992 23.672" enable-background="new 0 0 26.992 23.672" xml:space="preserve">
<path fill="#FFFFFF" d="M25.383,1.126H1.61c-0.575,0-0.988-0.051-1.236-0.154C0.125,0.869,0,0.733,0,0.563s0.125-0.306,0.374-0.409
	C0.622,0.051,1.035,0,1.61,0h23.772c0.575,0,0.986,0.051,1.236,0.154c0.248,0.103,0.373,0.239,0.373,0.409s-0.125,0.306-0.373,0.409
	C26.369,1.074,25.958,1.126,25.383,1.126z M25.383,12.399H1.61c-0.575,0-0.988-0.051-1.236-0.154C0.125,12.142,0,12.006,0,11.836
	c0-0.17,0.125-0.306,0.374-0.409c0.248-0.103,0.661-0.154,1.236-0.154h23.772c0.575,0,0.986,0.051,1.236,0.154
	c0.248,0.103,0.373,0.239,0.373,0.409s-0.125,0.306-0.373,0.409C26.369,12.347,25.958,12.399,25.383,12.399z M25.383,23.672H1.61
	c-0.575,0-0.988-0.051-1.236-0.154C0.125,23.415,0,23.279,0,23.109s0.125-0.306,0.374-0.409c0.248-0.103,0.661-0.154,1.236-0.154
	h23.772c0.575,0,0.986,0.051,1.236,0.154c0.248,0.103,0.373,0.239,0.373,0.409s-0.125,0.306-0.373,0.409
	C26.369,23.621,25.958,23.672,25.383,23.672z"/>
</svg>
